<svg xmlns="http://www.w3.org/2000/svg" viewBox="0 0 360 180"><defs><style>.cls-1{fill:#43556b;}.cls-2,.cls-3,.cls-4{fill:#a4c639;}.cls-2,.cls-3,.cls-5{stroke:#fff;}.cls-2{stroke-width:14.4px;}.cls-3,.cls-5{stroke-width:7.2px;}.cls-5{fill:#fff;}</style></defs><title>android-card</title><g id="android-card"><rect class="cls-1" width="360" height="180"/><g id="b"><ellipse class="cls-2" cx="180" cy="58.15" rx="17.55" ry="16.2"/><rect class="cls-2" x="162.45" y="54.1" width="35.09" height="35.09" rx="4.24" ry="4.24"/></g><g id="a"><path class="cls-3" d="M168.5,37.66h0a1.26,1.26,0,0,0-.49,1.7l6.83,12.31a1.24,1.24,0,0,0,1.7.49h0a1.24,1.24,0,0,0,.49-1.7l-6.82-12.31A1.25,1.25,0,0,0,168.5,37.66Z"/><path id="c" class="cls-3" d="M203,58.15h0a4.63,4.63,0,0,0-4.63,4.63V79.17A4.63,4.63,0,0,0,203,83.8h0a4.63,4.63,0,0,0,4.62-4.63V62.78A4.62,4.62,0,0,0,203,58.15Z"/><path id="c-2" data-name="c" class="cls-3" d="M186.56,76.85h0a4.63,4.63,0,0,0-4.63,4.63V97.87a4.63,4.63,0,0,0,4.63,4.63h0a4.62,4.62,0,0,0,4.62-4.63V81.48A4.63,4.63,0,0,0,186.56,76.85Z"/></g><g id="a-2" data-name="a"><path class="cls-3" d="M191.5,37.66h0a1.26,1.26,0,0,1,.49,1.7l-6.83,12.31a1.24,1.24,0,0,1-1.7.49h0a1.24,1.24,0,0,1-.49-1.7l6.82-12.31A1.25,1.25,0,0,1,191.5,37.66Z"/><path id="c-3" data-name="c" class="cls-3" d="M157.05,58.15h0a4.63,4.63,0,0,1,4.63,4.63V79.17a4.63,4.63,0,0,1-4.63,4.63h0a4.63,4.63,0,0,1-4.62-4.63V62.78A4.62,4.62,0,0,1,157.05,58.15Z"/><path id="c-4" data-name="c" class="cls-3" d="M173.44,76.85h0a4.63,4.63,0,0,1,4.63,4.63V97.87a4.63,4.63,0,0,1-4.63,4.63h0a4.62,4.62,0,0,1-4.62-4.63V81.48A4.63,4.63,0,0,1,173.44,76.85Z"/></g><g id="b-2" data-name="b"><ellipse class="cls-4" cx="180" cy="58.15" rx="17.55" ry="16.2"/><rect class="cls-4" x="162.45" y="54.1" width="35.09" height="35.09" rx="4.24" ry="4.24"/></g><path class="cls-5" d="M161.68,58.83h36.64"/><circle class="cls-5" cx="171.9" cy="50.24" r="0.77"/><circle class="cls-5" cx="188.1" cy="50.24" r="0.77"/></g></svg>