<svg xmlns="http://www.w3.org/2000/svg" xmlns:xlink="http://www.w3.org/1999/xlink" viewBox="0 0 595.28 595.28"><defs><style>.cls-1,.cls-11,.cls-3,.cls-5,.cls-7,.cls-9{mask:url(#mask);}.cls-1{filter:url(#luminosity-noclip-7);}.cls-10,.cls-12,.cls-2,.cls-4,.cls-42,.cls-44,.cls-46,.cls-48,.cls-50,.cls-52,.cls-6,.cls-8{mix-blend-mode:multiply;}.cls-2{fill:url(#linear-gradient);}.cls-3{filter:url(#luminosity-noclip-12);}.cls-4{fill:url(#linear-gradient-2);}.cls-5{filter:url(#luminosity-noclip-8);}.cls-6{fill:url(#linear-gradient-3);}.cls-7{filter:url(#luminosity-noclip-9);}.cls-8{fill:url(#linear-gradient-4);}.cls-9{filter:url(#luminosity-noclip-10);}.cls-10{fill:url(#linear-gradient-5);}.cls-11{filter:url(#luminosity-noclip-11);}.cls-12{fill:url(#linear-gradient-6);}.cls-13{isolation:isolate;}.cls-14{fill:#00a79d;}.cls-15{fill:#b77446;}.cls-16{fill:#d89a6c;}.cls-17{fill:#091c21;}.cls-18{fill:#efb483;}.cls-19{fill:#6f453a;}.cls-20{fill:#0b2026;}.cls-21{fill:#0b2b33;}.cls-22{fill:#13333a;}.cls-23{fill:#113542;}.cls-24{fill:#1a4551;}.cls-25{fill:#081c21;}.cls-26{fill:#0b1518;}.cls-27{fill:#88cbcd;}.cls-28{fill:#59322a;}.cls-29{fill:#fedc49;}.cls-30{fill:#f3b739;}.cls-31,.cls-53{fill:#fff;}.cls-32{fill:#41200f;}.cls-33{fill:#170f0b;}.cls-34{fill:#fdcca7;}.cls-35{fill:#8ac640;}.cls-36{fill:#f7941d;}.cls-37{fill:#f5c814;}.cls-38{fill:#0c80c4;}.cls-39{fill:#ed1677;}.cls-40{fill:#92278e;}.cls-41{mask:url(#mask-7);}.cls-42,.cls-44,.cls-46,.cls-48,.cls-50,.cls-52{opacity:0.47;}.cls-42{fill:url(#linear-gradient-7);}.cls-43{mask:url(#mask-8);}.cls-44{fill:url(#linear-gradient-8);}.cls-45{mask:url(#mask-9);}.cls-46{fill:url(#linear-gradient-9);}.cls-47{mask:url(#mask-10);}.cls-48{fill:url(#linear-gradient-10);}.cls-49{mask:url(#mask-11);}.cls-50{fill:url(#linear-gradient-11);}.cls-51{mask:url(#mask-12);}.cls-52{fill:url(#linear-gradient-12);}.cls-53{font-size:24px;font-family:MyriadPro-Semibold, Myriad Pro;font-weight:700;}.cls-54{letter-spacing:-0.01em;}.cls-55{letter-spacing:-0.01em;}.cls-56{letter-spacing:0em;}.cls-57{filter:url(#luminosity-noclip);}</style><filter id="luminosity-noclip" x="342.89" y="-8490" width="252.39" height="32766" filterUnits="userSpaceOnUse" color-interpolation-filters="sRGB"><feFlood flood-color="#fff" result="bg"/><feBlend in="SourceGraphic" in2="bg"/></filter><mask id="mask" x="342.89" y="-8490" width="252.39" height="32766" maskUnits="userSpaceOnUse"><g class="cls-57"/></mask><linearGradient id="linear-gradient" x1="469.08" y1="99.33" x2="469.08" y2="85.41" gradientUnits="userSpaceOnUse"><stop offset="0" stop-color="#a6a6a6"/><stop offset="0.21" stop-color="#767676"/><stop offset="0.52" stop-color="#373737"/><stop offset="0.74" stop-color="#0f0f0f"/><stop offset="0.86"/></linearGradient><linearGradient id="linear-gradient-2" x1="469.08" y1="594.74" x2="469.08" y2="580.82" xlink:href="#linear-gradient"/><linearGradient id="linear-gradient-3" x1="469.08" y1="198.41" x2="469.08" y2="184.49" xlink:href="#linear-gradient"/><linearGradient id="linear-gradient-4" x1="469.08" y1="297.49" x2="469.08" y2="283.57" xlink:href="#linear-gradient"/><linearGradient id="linear-gradient-5" x1="469.08" y1="396.58" x2="469.08" y2="382.66" xlink:href="#linear-gradient"/><linearGradient id="linear-gradient-6" x1="469.08" y1="495.66" x2="469.08" y2="481.74" xlink:href="#linear-gradient"/><filter id="luminosity-noclip-7" x="342.89" y="85.41" width="252.39" height="13.92" filterUnits="userSpaceOnUse" color-interpolation-filters="sRGB"><feFlood flood-color="#fff" result="bg"/><feBlend in="SourceGraphic" in2="bg"/></filter><mask id="mask-7" x="342.89" y="85.41" width="252.39" height="13.92" maskUnits="userSpaceOnUse"><g class="cls-1"><polygon class="cls-2" points="342.88 85.41 350.58 99.33 595.28 99.33 595.28 85.41 342.88 85.41"/></g></mask><linearGradient id="linear-gradient-7" x1="469.08" y1="99.33" x2="469.08" y2="85.41" gradientUnits="userSpaceOnUse"><stop offset="0" stop-color="#130c0e"/><stop offset="0.86" stop-color="#130c0e"/></linearGradient><filter id="luminosity-noclip-8" x="342.89" y="184.49" width="252.39" height="13.92" filterUnits="userSpaceOnUse" color-interpolation-filters="sRGB"><feFlood flood-color="#fff" result="bg"/><feBlend in="SourceGraphic" in2="bg"/></filter><mask id="mask-8" x="342.89" y="184.49" width="252.39" height="13.92" maskUnits="userSpaceOnUse"><g class="cls-5"><polygon class="cls-6" points="342.88 184.49 350.58 198.41 595.28 198.41 595.28 184.49 342.88 184.49"/></g></mask><linearGradient id="linear-gradient-8" x1="469.08" y1="198.41" x2="469.08" y2="184.49" xlink:href="#linear-gradient-7"/><filter id="luminosity-noclip-9" x="342.89" y="283.57" width="252.39" height="13.92" filterUnits="userSpaceOnUse" color-interpolation-filters="sRGB"><feFlood flood-color="#fff" result="bg"/><feBlend in="SourceGraphic" in2="bg"/></filter><mask id="mask-9" x="342.89" y="283.57" width="252.39" height="13.92" maskUnits="userSpaceOnUse"><g class="cls-7"><polygon class="cls-8" points="342.88 283.57 350.58 297.49 595.28 297.49 595.28 283.57 342.88 283.57"/></g></mask><linearGradient id="linear-gradient-9" x1="469.08" y1="297.49" x2="469.08" y2="283.57" xlink:href="#linear-gradient-7"/><filter id="luminosity-noclip-10" x="342.89" y="382.66" width="252.39" height="13.92" filterUnits="userSpaceOnUse" color-interpolation-filters="sRGB"><feFlood flood-color="#fff" result="bg"/><feBlend in="SourceGraphic" in2="bg"/></filter><mask id="mask-10" x="342.89" y="382.66" width="252.39" height="13.92" maskUnits="userSpaceOnUse"><g class="cls-9"><polygon class="cls-10" points="342.88 382.66 350.58 396.57 595.28 396.57 595.28 382.66 342.88 382.66"/></g></mask><linearGradient id="linear-gradient-10" x1="469.08" y1="396.58" x2="469.08" y2="382.66" xlink:href="#linear-gradient-7"/><filter id="luminosity-noclip-11" x="342.89" y="481.74" width="252.39" height="13.92" filterUnits="userSpaceOnUse" color-interpolation-filters="sRGB"><feFlood flood-color="#fff" result="bg"/><feBlend in="SourceGraphic" in2="bg"/></filter><mask id="mask-11" x="342.89" y="481.74" width="252.39" height="13.92" maskUnits="userSpaceOnUse"><g class="cls-11"><polygon class="cls-12" points="342.88 481.74 350.58 495.66 595.28 495.66 595.28 481.74 342.88 481.74"/></g></mask><linearGradient id="linear-gradient-11" x1="469.08" y1="495.66" x2="469.08" y2="481.74" xlink:href="#linear-gradient-7"/><filter id="luminosity-noclip-12" x="342.89" y="580.82" width="252.39" height="13.92" filterUnits="userSpaceOnUse" color-interpolation-filters="sRGB"><feFlood flood-color="#fff" result="bg"/><feBlend in="SourceGraphic" in2="bg"/></filter><mask id="mask-12" x="342.89" y="580.82" width="252.39" height="13.92" maskUnits="userSpaceOnUse"><g class="cls-3"><polygon class="cls-4" points="342.88 580.82 350.58 594.74 595.28 594.74 595.28 580.82 342.88 580.82"/></g></mask><linearGradient id="linear-gradient-12" x1="469.08" y1="594.74" x2="469.08" y2="580.82" xlink:href="#linear-gradient-7"/></defs><title>business</title><g class="cls-13"><g id="Layer_1" data-name="Layer 1"><g id="_Csoport_" data-name="&lt;Csoport&gt;"><ellipse id="_Görbe_" data-name="&lt;Görbe&gt;" class="cls-14" cx="143.91" cy="554.28" rx="93.33" ry="10.33"/><g id="_Csoport_2" data-name="&lt;Csoport&gt;"><path id="_Görbe_2" data-name="&lt;Görbe&gt;" class="cls-15" d="M143.69,203.67a40.14,40.14,0,0,0,9.93-.29L153,195l-25.76-5.21,1,3.23C130,195.76,135.37,203,143.69,203.67Z"/><path id="_Görbe_3" data-name="&lt;Görbe&gt;" class="cls-16" d="M143.69,203.67C135.37,203,130,195.76,128.22,193l4.09,13.59,13.89,4.81,7.6-5.48-.18-2.56A40.14,40.14,0,0,1,143.69,203.67Z"/><path id="_Görbe_4" data-name="&lt;Görbe&gt;" class="cls-17" d="M90.54,531.21S88.4,548.3,89.47,550.7s2.27,2.8,2.27,2.8.27-1.87,1.07-1.33.8,3.07.8,3.07,8.94,6.8,18.55,8a79.47,79.47,0,0,0,18.42,0s-26-6.4-26.83-33.63Z"/><path id="_Görbe_5" data-name="&lt;Görbe&gt;" class="cls-17" d="M168.62,529s-2.2,5-1.4,12.81l.8,7.81h13s-.4-3.8,1-3.4,3.91,3.9,3.91,3.9h36.33s-36.83-6.71-39.64-22.32Z"/><path id="_Görbe_6" data-name="&lt;Görbe&gt;" class="cls-18" d="M268.66,171.83s-8.57-9.13-9.57-12.58-.45-9.34-.45-15.46,2.9-1.11,4.12,7,2.34,2.11,2.22.44-1.33-12.13-.77-18.8,1.55-14.58,3.67-13.47,1.89,18.48,1.89,20.92c0,0,.44-16.13,1-19.36s2.45-3.89,3.12-1.89.22,21.14.55,21.48.11-19.14.45-20.92,2.33-2.23,2.67,3.45.44,18.58.44,18.58.45-14.24,1-15.25,2.89,6,2.11,16.25,1.45,15.13,1.67,20.92a14.7,14.7,0,0,1-3.78,9.9l-.23,4.9-10.35-2.78Z"/><path id="_Görbe_7" data-name="&lt;Görbe&gt;" class="cls-19" d="M80.35,370.27s-3.61,1.46-3.21,5.2-.26,6.4.81,6.93,3.33.8,3.33-.4-1.33-6.8,1.6-8.27S80.35,370.27,80.35,370.27Z"/><path id="_Görbe_8" data-name="&lt;Görbe&gt;" class="cls-18" d="M92.75,353.86s4.93,10,5.6,11.34.13,12.4.13,12.4a16.24,16.24,0,0,1-4,1.87c-1.46.27-11.6-.4-12.13-.8s-3.6-9.87-3.6-10.67,4-6.94,4-6.94l-.27-3.33Z"/><path id="_Görbe_9" data-name="&lt;Görbe&gt;" class="cls-20" d="M170.5,451.62a36.65,36.65,0,0,1-4.6-4.8c-.73-1.05-3.93-6.58-6.81-11.62l1.81,11.22s-2.1,6.93-3.4,13.31l8.2-9.11Z"/><path id="_Görbe_10" data-name="&lt;Görbe&gt;" class="cls-21" d="M182.58,356.07c-6.66,7.21-12.87,10.53-16.73,12.05-1,1.09-1.88,2-2.15,2.28-.8.8-5.07,2.4-5.07,2.4l6.67,17.87s-7.47-6.67-8.53-7.73c-.85-.85-1.87,16.67-2.25,23.88l4.57,28.38c2.88,5,6.08,10.57,6.81,11.62a36.65,36.65,0,0,0,4.6,4.8l-4.8-1-8.2,9.11a42,42,0,0,0-1,7.5c0,6.4,9.6,62.41,9.6,62.41l17.61-.8s.8-77.62,1.6-80.82C185.94,445.51,183.61,382.93,182.58,356.07Z"/><path id="_Görbe_11" data-name="&lt;Görbe&gt;" class="cls-20" d="M106.69,454.82a62.27,62.27,0,0,1-11.81.8s5.8,4.6,8.6,5.4c2,.57,2.45.23,2.56,0l0-.19a.81.81,0,0,1,0,.19c-.5,1.83-5,18.34-5,20.42,0,1.49,4.06,15.34,6.67,24.08,1.61-21.3,4-50.3,5.54-54.29,0-.12.12-.31.19-.47A14.24,14.24,0,0,1,106.69,454.82Z"/><path id="_Görbe_12" data-name="&lt;Görbe&gt;" class="cls-21" d="M106,461a.81.81,0,0,0,0-.19Z"/><path id="_Görbe_13" data-name="&lt;Görbe&gt;" class="cls-21" d="M122.36,382.67s8.27-1.07,10.13-1.6,13.87-7.74,13.87-7.74l-16.27-6.66.71-.19A132.55,132.55,0,0,1,111,361.29L91.68,440s-4,4-7.2,12,4,68,2.4,79.22c0,0,10,3,19.61-1,0,0,.28-11.86,1.26-24.73-2.61-8.74-6.67-22.59-6.67-24.08,0-2.08,4.46-18.59,5-20.42-.11.24-.57.58-2.56,0-2.8-.8-8.6-5.4-8.6-5.4a62.27,62.27,0,0,0,11.81-.8,14.24,14.24,0,0,0,6.79-4.07c1.68-4.16,10.08-22.07,18.33-39.53.42-5.6,1.24-13,2.82-16,2.66-5.07,7.73-14.14,7.73-14.14s-9.07,3.73-10.4,4S122.36,382.67,122.36,382.67Z"/><path id="_Görbe_14" data-name="&lt;Görbe&gt;" class="cls-20" d="M182.11,344l-29.61-16.8-37.61,18.4L111,361.29a132.55,132.55,0,0,0,19.77,5.19l-.71.19,16.27,6.66s-12,7.21-13.87,7.74-10.13,1.6-10.13,1.6,8.27,2.67,9.6,2.4,10.4-4,10.4-4-5.07,9.07-7.73,14.14c-1.58,3-2.4,10.41-2.82,16,8.84-18.69,17.49-36.82,17.49-36.82l5.22,32.42c.38-7.21,1.4-24.73,2.25-23.88,1.06,1.06,8.53,7.73,8.53,7.73l-6.67-17.87s4.27-1.6,5.07-2.4c.27-.26,1.13-1.19,2.15-2.28,3.86-1.52,10.07-4.84,16.73-12.05C182.29,348.69,182.11,344,182.11,344Z"/><path id="_Görbe_15" data-name="&lt;Görbe&gt;" class="cls-22" d="M128.49,209.56a88,88,0,0,1,27.21-1.34l.8,8-26.41,1.3Z"/><path id="_Görbe_16" data-name="&lt;Görbe&gt;" class="cls-21" d="M136,260.51c.73-1.1,1.29-1.87,1.29-1.87s-11.46-2.94-12.53-4-3.76-30.46-4.2-35.28c0,0,0,35.71,1,37.71C122.49,258.86,133.67,260.24,136,260.51Z"/><path id="_Görbe_17" data-name="&lt;Görbe&gt;" class="cls-21" d="M170.2,267.94c-2.24,7.2-17.43,35.24-17.43,35.24s18.13-29,18-31.81A15.59,15.59,0,0,0,170.2,267.94Z"/><path id="_Görbe_18" data-name="&lt;Görbe&gt;" class="cls-21" d="M172.29,253.42C171.18,255,166.1,257,166.1,257s.64.93,1.43,2.25a23.08,23.08,0,0,0,4.77-2.52C172.89,256.19,172.62,254.63,172.29,253.42Z"/><path id="_Görbe_19" data-name="&lt;Görbe&gt;" class="cls-21" d="M73.08,290.88s-4-1.3-5.1-1.1-5.11,1.4-5.11,1.4,3-.4,3.81-.4,4,2.7,4,2.7a15.84,15.84,0,0,0-4.3-.6c-2.41,0-7.11,2.4-7.11,2.4s6.91-1.3,9.61-.7a19.56,19.56,0,0,1,4.8,2l-.54-1.38A294.4,294.4,0,0,1,91.72,269c-1.73,1.25-3.65,2.61-5.64,4C79.48,277.57,73.08,290.88,73.08,290.88Z"/><path id="_Görbe_20" data-name="&lt;Görbe&gt;" class="cls-21" d="M102.58,236.46s3,7.51,3,9.21-.7,6.2-.7,6.2-1.81-5.7-3-7.1a18.53,18.53,0,0,0-4.4-3s4.6,6.3,4.91,9.1c.17,1.6.24,4.4.27,6.51a31.88,31.88,0,0,1,2.89-2.21s2.24-5.1,2.34-7.9S102.58,236.46,102.58,236.46Z"/><path id="_Görbe_21" data-name="&lt;Görbe&gt;" class="cls-21" d="M68.34,329.72c-3.06-5-8.2-12.85-11.92-18.52,8.39,19.28,23.13,50,23.13,50l8-4C80.31,350.38,73,337.18,68.34,329.72Z"/><path id="_Görbe_22" data-name="&lt;Görbe&gt;" class="cls-21" d="M194.64,236.1c-.53-2.54-3.33-6.94-3.33-6.94s1.47,4.27,1.47,6.27-3.07,7.2-3.07,7.2.27-2.8.8-7.07-5.34-15.2-5.34-15.2,2.4,9.34,2.54,12.94-.14,12.27-.14,12.27,20.74,1,37.62,1.27c-11.84-1.78-31.35-5.67-31.35-5.67A8.51,8.51,0,0,0,194.64,236.1Z"/><path id="_Görbe_23" data-name="&lt;Görbe&gt;" class="cls-23" d="M264,171.15s-13.6,45.61-26.8,54.81c0,0-32.81-.8-54-9.2l-24.67-1.25c4.73,12.32,13.81,36.08,14,37.26a.84.84,0,0,1-.21.65c.33,1.21.6,2.77,0,3.35a23.08,23.08,0,0,1-4.77,2.52c1.22,2.07,2.81,5.1,3,7.22a5.21,5.21,0,0,1-.3,1.43,15.59,15.59,0,0,1,.6,3.43c.1,2.8-18,31.81-18,31.81-3.14-3.7-20.28-26.71-20.58-29a18.82,18.82,0,0,1,.46-5,3.48,3.48,0,0,1-.16-.67c0-2.3,2.08-5.84,3.51-8-2.33-.27-13.51-1.65-14.41-3.44-1-2-1-37.71-1-37.71L94.75,228s-44.41,62.82-44,68.42c.11,1.56,2.44,7.36,5.68,14.82,3.72,5.67,8.86,13.57,11.92,18.52,4.62,7.46,12,20.66,19.25,27.46l8-4L73.68,296.56a19.56,19.56,0,0,0-4.8-2c-2.7-.6-9.61.7-9.61.7s4.7-2.4,7.11-2.4a15.84,15.84,0,0,1,4.3.6s-3.2-2.7-4-2.7-3.81.4-3.81.4,4-1.2,5.11-1.4,5.1,1.1,5.1,1.1,6.4-13.31,13-17.91c2-1.39,3.91-2.75,5.64-4a89.35,89.35,0,0,1,10.94-11.59c0-2.11-.1-4.91-.27-6.51-.31-2.8-4.91-9.1-4.91-9.1a18.53,18.53,0,0,1,4.4,3c1.2,1.4,3,7.1,3,7.1s.7-4.5.7-6.2-3-9.21-3-9.21,5.41,8,5.31,10.81-2.34,7.9-2.34,7.9,8.4,53.61-.4,98c0,0,20.41,9.61,39.61,6.41a173.06,173.06,0,0,0,9.61-28s8.8,18,9.2,29.61c0,0,18-3.6,22-16,0,0-1.6-31.21,0-49.21s2-50.41,2-50.41.27-8.67.14-12.27-2.54-12.94-2.54-12.94,5.87,10.94,5.34,15.2-.8,7.07-.8,7.07,3.07-5.2,3.07-7.2-1.47-6.27-1.47-6.27,2.8,4.4,3.33,6.94a8.51,8.51,0,0,1-.8,5.07s19.51,3.89,31.35,5.67c9.43.16,17.68.1,20.4-.47a9.37,9.37,0,0,0,3.55-2,42.45,42.45,0,0,0,7.92-13c3.37-8.83,16.23-45.74,19.5-55.14Z"/><path id="_Görbe_24" data-name="&lt;Görbe&gt;" class="cls-21" d="M281.6,178.35l-5-2.06c-3.27,9.4-16.13,46.31-19.5,55.14a42.45,42.45,0,0,1-7.92,13C258.42,237,275.32,210.43,281.6,178.35Z"/><path id="_Görbe_25" data-name="&lt;Görbe&gt;" class="cls-21" d="M132.19,274.17c.3,2.3,17.44,25.31,20.58,29,0,0-18.49-28.47-20.12-34A18.82,18.82,0,0,0,132.19,274.17Z"/><g id="_Csoport_3" data-name="&lt;Csoport&gt;"><path id="_Görbe_26" data-name="&lt;Görbe&gt;" class="cls-24" d="M132.36,219.54c-.5-1.3-1-2.55-1.41-3.65-1.47-3.81-2.46-6.33-2.46-6.33l-8,9.07s0,.3.07.73c.44,4.82,3.22,34.3,4.2,35.28s12.53,4,12.53,4-.56.77-1.29,1.87c-1.43,2.16-3.51,5.7-3.51,8a3.48,3.48,0,0,0,.16.67c1.63,5.53,20.12,34,20.12,34s-5.34-41.61-5.61-44C147,257.47,137.77,233.5,132.36,219.54Z"/><path id="_Görbe_27" data-name="&lt;Görbe&gt;" class="cls-24" d="M158.5,215.51l-2.8-7.29v6.67l.08.49c.11.62.34,1.89.62,3.54,1.47,8.63,4.72,28.82,4.1,34.65-.8,7.47-7.73,49.61-7.73,49.61s15.19-28,17.43-35.24a5.21,5.21,0,0,0,.3-1.43c-.16-2.12-1.75-5.15-3-7.22-.79-1.32-1.43-2.25-1.43-2.25s5.08-2,6.19-3.62a.84.84,0,0,0,.21-.65C172.31,251.59,163.23,227.83,158.5,215.51Z"/></g><g id="_Csoport_4" data-name="&lt;Csoport&gt;"><path id="_Görbe_28" data-name="&lt;Görbe&gt;" class="cls-25" d="M156.4,218.92c-9.61,7.17-20.44,2.53-24,.62,5.41,14,14.62,37.93,14.8,39.63.27,2.4,5.61,44,5.61,44s6.93-42.14,7.73-49.61C161.12,247.74,157.87,227.56,156.4,218.92Z"/><path id="_Görbe_29" data-name="&lt;Görbe&gt;" class="cls-26" d="M156.2,217.76c-.79,4.17-19.4,5.22-24.79-.69l1,2.47c3.6,1.91,14.43,6.55,24-.62Z"/><path id="_Görbe_30" data-name="&lt;Görbe&gt;" class="cls-25" d="M131,215.89l.34.86c0-.19-.12-.51-.2-.9Z"/><path id="_Görbe_31" data-name="&lt;Görbe&gt;" class="cls-25" d="M155.1,204.46c-.6-3.41-3.7,2.2-10.1,3s-10.21-1.6-12.71-2.3-2.9-.1-2.4,3.8c.34,2.65.89,5.39,1.2,6.89.08.39.15.71.2.9l.05.26.07.06c5.39,5.91,24,4.86,24.79.69a1.5,1.5,0,0,0,0-.7C154.3,210.26,155.7,207.86,155.1,204.46Z"/></g><path id="_Görbe_32" data-name="&lt;Görbe&gt;" class="cls-19" d="M61.23,379.74s55.55,3.73,58.5,5.49-6.88,11-5.7,27.48,3.54,31.8,1.57,33.77-58.1-9-58.1-9S44.54,391.51,61.23,379.74Z"/><path id="_Görbe_33" data-name="&lt;Görbe&gt;" class="cls-19" d="M95.15,373.87s-1.87-2.8.4-4.27,6.8,2.13,6.94,7.2.26,6.8.26,6.8-3.07,1.2-4.53-.26S100.08,374.67,95.15,373.87Z"/><path id="_Görbe_34" data-name="&lt;Görbe&gt;" class="cls-18" d="M119.73,385.23s3.8.73,5.44,8.91,3.44,40.1,4.58,46-14.15,6.35-14.15,6.35,1.06-5.53.08-17.15S107.57,389.58,119.73,385.23Z"/><circle id="_Görbe_35" data-name="&lt;Görbe&gt;" class="cls-27" cx="277.88" cy="181.7" r="1.95"/><path id="_Görbe_36" data-name="&lt;Görbe&gt;" class="cls-27" d="M277.63,189.5a1.95,1.95,0,1,1-1.95-1.95A1.95,1.95,0,0,1,277.63,189.5Z"/><path id="_Görbe_37" data-name="&lt;Görbe&gt;" class="cls-28" d="M52.9,410.59A53,53,0,0,0,77.52,421.2l.11,2.4S60.81,420.9,52.9,410.59Z"/><path id="_Görbe_38" data-name="&lt;Görbe&gt;" class="cls-28" d="M112.69,410.55s-13.31,8.61-28.32,10.92l-.1,2.4S104.79,420.86,112.69,410.55Z"/><path id="_Görbe_39" data-name="&lt;Görbe&gt;" class="cls-18" d="M76.86,415.82s.19,8.32,1,9.89,7,2.13,7-.55.28-9.62-.55-9.8S77.23,413.33,76.86,415.82Z"/><path id="_Görbe_40" data-name="&lt;Görbe&gt;" class="cls-18" d="M122.62,177c.11.29.23.57.35.87C123,177.85,122.85,177.49,122.62,177Z"/><path id="_Görbe_41" data-name="&lt;Görbe&gt;" class="cls-29" d="M129.08,157.93a12.88,12.88,0,0,1-.7-3.31c-1.9,1.51-4,7.21-4,7.21-1.3-1.9-1.3-7-1.3-7-2.5,2.41-1.2,8.31-1.2,8.31-3-1.6-4.8-7.8-4.8-7.8-2,2.7-1.41,7.3-1.41,7.3a11.39,11.39,0,0,1-3.7-6.5c-1.25.66-1.48,2.45-1.29,4.38,2.46,5.81,6.3,12.88,6.3,12.88,3.85-.95,6,4.46,6,4.46l3.87,4.6S124,162.83,128,161s3.61-7.34,3.61-7.34C129.61,154.22,129.08,157.93,129.08,157.93Z"/><path id="_Görbe_42" data-name="&lt;Görbe&gt;" class="cls-30" d="M169.76,129.8c.26,9.46-6.35,17.22-6.35,17.22,1.7-6.51-1.4-10.61-1.4-10.61.6,10.11-8.31,13.71-8.31,13.71a6.77,6.77,0,0,0,1-4.2,14.2,14.2,0,0,1-13.39,3.53c5.42,2.4,11.82,4.8,17.5,3.77C167.36,151.68,172.85,138.18,169.76,129.8Z"/><path id="_Görbe_43" data-name="&lt;Görbe&gt;" class="cls-29" d="M169.76,129.8c-1.33-3.59-4.22-6.25-9.15-6.61-14.29-1-12.41,10.61-12.41,10.61s-28.1-9-35,4.61c.16,2.88.84,7.23,3.42,9.81a9.76,9.76,0,0,1,1.7-9.11s-.3,4.8,1.6,8.11c0,0-.4-5.21,3.4-7.41,0,0-1.3,5.2,1.2,8.31,0,0,.2-5.41,5.21-7.11,0,0-5.77,7.81,2,12.61,0,0-4.27-2.8-2.47-7.3a1.53,1.53,0,0,1,1.58-.92c-.5-.14-.78-.19-.78-.19s.28,0,.78.19c2.13,0,6,2,10.55,4a14.2,14.2,0,0,0,13.39-3.53,6.77,6.77,0,0,1-1,4.2s8.91-3.6,8.31-13.71c0,0,3.1,4.1,1.4,10.61C163.41,147,170,139.26,169.76,129.8Z"/><path id="_Görbe_44" data-name="&lt;Görbe&gt;" class="cls-30" d="M129.68,141c-5,1.7-5.21,7.11-5.21,7.11-2.5-3.11-1.2-8.31-1.2-8.31-3.8,2.2-3.4,7.41-3.4,7.41-1.9-3.31-1.6-8.11-1.6-8.11a9.76,9.76,0,0,0-1.7,9.11c-2.58-2.58-3.26-6.93-3.42-9.81-1.52,3-2,7.06-1,12.56-2.51,1.21-3.72,3.22-2.93,5.72.36,1.13.87,2.44,1.45,3.82-.19-1.93,0-3.72,1.29-4.38a11.39,11.39,0,0,0,3.7,6.5s-.6-4.6,1.41-7.3c0,0,1.8,6.2,4.8,7.8,0,0-1.3-5.9,1.2-8.31,0,0,0,5.11,1.3,7,0,0,2.11-5.7,4-7.21a12.88,12.88,0,0,0,.7,3.31s.53-3.71,2.57-4.31C123.91,148.82,129.68,141,129.68,141Z"/><g id="_Csoport_5" data-name="&lt;Csoport&gt;"><path id="_Görbe_45" data-name="&lt;Görbe&gt;" class="cls-16" d="M160.32,157a30,30,0,0,0-1.64-3.74c-5.64,1-12-1.4-17.37-3.79-4.57-2-8.42-4-10.55-4a34.6,34.6,0,0,1,10.53,5.42C147.48,155.25,150.94,159.76,160.32,157Z"/><path id="_Görbe_46" data-name="&lt;Görbe&gt;" class="cls-16" d="M152.4,180.52c.83,1.48,4.82,2,8.3,2.17-.59-2.47-1.12-5-1.5-7.56C156.82,176,151.18,178.34,152.4,180.52Z"/><path id="_Görbe_47" data-name="&lt;Görbe&gt;" class="cls-18" d="M152.4,180.52c-1.22-2.18,4.42-4.52,6.8-5.39a44.14,44.14,0,0,1-.59-9.36l2.67-5.61a26.18,26.18,0,0,0-1-3.18c-9.38,2.78-12.84-1.73-19-6.16a34.6,34.6,0,0,0-10.53-5.42,1.53,1.53,0,0,0-1.58.92c-1.8,4.5,2.47,7.3,2.47,7.3s.4,5.48-3.61,7.34-1.2,21.49-1.2,21.49l-3.87-4.6s-2.09-5.23-5.83-4.48c-3.12,1.42-.08,14.42,6.83,12.89,0,0,5.81,10,12.42,12.61s18.81,2.4,22.62,1.4a37.73,37.73,0,0,0,6.27-2.2,152.31,152.31,0,0,1-4.58-15.38C157.22,182.52,153.23,182,152.4,180.52Z"/></g><path id="_Görbe_48" data-name="&lt;Görbe&gt;" class="cls-29" d="M156.14,163.2l1.28-3a37.23,37.23,0,0,1,3.86,0L160,162.7Z"/><path id="_Görbe_49" data-name="&lt;Görbe&gt;" class="cls-29" d="M148.13,164.1l-2-3.2s-9.34.73-11.35,6.6A37,37,0,0,1,148.13,164.1Z"/><path id="_Görbe_50" data-name="&lt;Görbe&gt;" class="cls-31" d="M158.41,186.66l1.1-.8-.9-3.21s-7.61,4.71-21.32,4.21a78.27,78.27,0,0,1,8.81,6.1c3.1,2.71,15.51-2.5,15.51-2.5l-1.5-4.4Z"/><g id="_Csoport_6" data-name="&lt;Csoport&gt;"><path id="_Görbe_51" data-name="&lt;Görbe&gt;" class="cls-32" d="M147.1,169.32a2.41,2.41,0,1,1-2.41-2.4A2.41,2.41,0,0,1,147.1,169.32Z"/><path id="_Görbe_52" data-name="&lt;Görbe&gt;" class="cls-31" d="M144.29,167.92a1,1,0,1,1-1-1A1,1,0,0,1,144.29,167.92Z"/><path id="_Görbe_53" data-name="&lt;Görbe&gt;" class="cls-33" d="M145.71,169.34a1,1,0,1,1-1-1A1,1,0,0,1,145.71,169.34Z"/></g><g id="_Csoport_7" data-name="&lt;Csoport&gt;"><path id="_Görbe_54" data-name="&lt;Görbe&gt;" class="cls-32" d="M158.5,167.49a1.77,1.77,0,1,1-1.77-1.77A1.77,1.77,0,0,1,158.5,167.49Z"/><path id="_Görbe_55" data-name="&lt;Görbe&gt;" class="cls-31" d="M156.44,166.46a.74.74,0,1,1-.74-.74A.74.74,0,0,1,156.44,166.46Z"/><path id="_Görbe_56" data-name="&lt;Görbe&gt;" class="cls-33" d="M157.48,167.5a.74.74,0,1,1-.74-.74A.74.74,0,0,1,157.48,167.5Z"/></g><path id="_Görbe_57" data-name="&lt;Görbe&gt;" class="cls-34" d="M153.27,167.64c.69-.39,3.1,1.5,4.5,2s4,7.51,5.91,9.21-9.31,2.3-10.51,2.1-1.9-3-.7-3.7S150.57,169.14,153.27,167.64Z"/><path id="_Görbe_58" data-name="&lt;Görbe&gt;" class="cls-16" d="M118.5,177.41s3.14.81,3.8,5.34c0,0-1.73,1.4-2.9-2.27a2,2,0,0,0,1.77,1.27S121.3,179.68,118.5,177.41Z"/></g></g><path class="cls-35" d="M332.68,0a21.67,21.67,0,0,0-19,32.16l37.16,67.17H595.56V0Z"/><path class="cls-36" d="M332.4,99.19a21.67,21.67,0,0,0-19,32.16l37.15,67.17h244.7V99.19Z"/><path class="cls-37" d="M332.4,198.38a21.67,21.67,0,0,0-19,32.16l37.15,67.17h244.7V198.38Z"/><path class="cls-38" d="M332.4,297.57a21.67,21.67,0,0,0-19,32.16l37.15,67.17h244.7V297.57Z"/><path class="cls-39" d="M332.4,396.76a21.67,21.67,0,0,0-19,32.16l37.15,67.17h244.7V396.76Z"/><path class="cls-40" d="M332.4,496a21.67,21.67,0,0,0-19,32.16l37.15,67.17h244.7V496Z"/><g class="cls-41"><polygon class="cls-42" points="342.88 85.41 350.58 99.33 595.28 99.33 595.28 85.41 342.88 85.41"/></g><g class="cls-43"><polygon class="cls-44" points="342.88 184.49 350.58 198.41 595.28 198.41 595.28 184.49 342.88 184.49"/></g><g class="cls-45"><polygon class="cls-46" points="342.88 283.57 350.58 297.49 595.28 297.49 595.28 283.57 342.88 283.57"/></g><g class="cls-47"><polygon class="cls-48" points="342.88 382.66 350.58 396.57 595.28 396.57 595.28 382.66 342.88 382.66"/></g><g class="cls-49"><polygon class="cls-50" points="342.88 481.74 350.58 495.66 595.28 495.66 595.28 481.74 342.88 481.74"/></g><g class="cls-51"><polygon class="cls-52" points="342.88 580.82 350.58 594.74 595.28 594.74 595.28 580.82 342.88 580.82"/></g><path class="cls-31" d="M390.31,547.16l-3.1-.8a3.83,3.83,0,0,1-3.82-3.56,13.31,13.31,0,1,0-13.45,0,3.82,3.82,0,0,1-3.81,3.56l-3.11.8A12.26,12.26,0,0,0,353.81,559v4.34a6.47,6.47,0,0,0,6.47,6.48h32.77a6.48,6.48,0,0,0,6.48-6.48V559A12.26,12.26,0,0,0,390.31,547.16Z"/><path class="cls-31" d="M393,421.63H360.33a4,4,0,0,0-4,4v42.5a4,4,0,0,0,4,4H393a4,4,0,0,0,4-4V425.6A4,4,0,0,0,393,421.63Zm-32.67,3H393a1,1,0,0,1,1,1v7.65H359.36V425.6A1,1,0,0,1,360.33,424.63ZM393,469.06H360.33a1,1,0,0,1-1-1V435.25H394V468.1A1,1,0,0,1,393,469.06Z"/><rect class="cls-31" x="362.2" y="440.17" width="5.83" height="5.17" rx="1.01" ry="1.01"/><rect class="cls-31" x="362.2" y="449.54" width="5.83" height="5.17" rx="1.01" ry="1.01"/><rect class="cls-31" x="362.2" y="458.92" width="5.83" height="5.17" rx="1.01" ry="1.01"/><path class="cls-31" d="M391.07,443.38H370.82a1,1,0,0,0,0,2h20.25a1,1,0,1,0,0-2Z"/><path class="cls-31" d="M391.07,452.08H370.82a1,1,0,0,0,0,2h20.25a1,1,0,0,0,0-2Z"/><path class="cls-31" d="M391.07,461.79H370.82a1,1,0,0,0,0,2h20.25a1,1,0,0,0,0-2Z"/><rect class="cls-31" x="362.7" y="155.67" width="10.67" height="26.03" rx="1.18" ry="1.18"/><rect class="cls-31" x="375.95" y="148.77" width="10.67" height="32.93" rx="1.18" ry="1.18"/><rect class="cls-31" x="389.2" y="143.63" width="10.67" height="38.07" rx="1.18" ry="1.18"/><path class="cls-31" d="M404.9,126.42l-10.72,2.1,2.42,3-13.12,10.76-18.16,5.27-19.13,24a1.49,1.49,0,0,0,.24,2.1,1.51,1.51,0,0,0,.93.33,1.5,1.5,0,0,0,1.18-.57l18.53-23.27L384.91,145l13.58-11.14,2.12,2.62Z"/><path class="cls-31" d="M393,46.19A11.56,11.56,0,0,0,388.42,42,32.65,32.65,0,0,0,382,39.63V30.49a5.4,5.4,0,0,1,.84.52,5.31,5.31,0,0,1,1.53,2,4.23,4.23,0,0,0,4,2.46h.19a4.14,4.14,0,0,0,3.54-6,11.7,11.7,0,0,0-2.7-3.36A14.47,14.47,0,0,0,382,23V20.6a3.69,3.69,0,1,0-7.37,0v2.24a18.89,18.89,0,0,0-5.19,1.27,11.28,11.28,0,0,0-5.18,4.21,10.64,10.64,0,0,0-1.8,5.93,10.8,10.8,0,0,0,3.83,8.35c1.65,1.49,4.44,2.76,8.34,3.81V58a7.38,7.38,0,0,1-2.52-1.4,8,8,0,0,1-2.17-3.12,4.15,4.15,0,0,0-7.75,3A13.74,13.74,0,0,0,366,62a15.77,15.77,0,0,0,8.63,3.43v2.27a3.69,3.69,0,1,0,7.37,0V65.37a19.67,19.67,0,0,0,5.13-1.26,11.89,11.89,0,0,0,5.61-4.63A13.05,13.05,0,0,0,393,46.19Zm-21.34-10a3.19,3.19,0,0,1-1.24-2.52,3,3,0,0,1,1.33-2.57,7.62,7.62,0,0,1,2.82-1.2v7.72A10,10,0,0,1,371.67,36.2Zm12.56,20.63A6.51,6.51,0,0,1,382,58V48.37l.46.15a6.87,6.87,0,0,1,3,1.8,3.78,3.78,0,0,1,.87,2.51A5.08,5.08,0,0,1,384.23,56.83Z"/><path class="cls-31" d="M381.28,221A28.75,28.75,0,1,0,410,249.75,28.75,28.75,0,0,0,381.28,221Zm-22.46,30.75h-3.17a2,2,0,0,1,0-4h3.17a2,2,0,0,1,0,4Zm20.46-27.62a2,2,0,0,1,4,0v3.16a2,2,0,0,1-4,0Zm-17.53,6.09a2,2,0,0,1,2.82,0l2.24,2.24a2,2,0,1,1-2.82,2.82L361.75,233A2,2,0,0,1,361.75,230.22ZM366.81,267l-2.24,2.24a2,2,0,1,1-2.82-2.82l2.24-2.24a2,2,0,0,1,2.82,2.82Zm16.47,8.34a2,2,0,0,1-4,0v-3.17a2,2,0,0,1,4,0Zm-2-23.63a2,2,0,0,1-1.39-.56l-13.25-12.75a2,2,0,0,1,2.78-2.88l12.67,12.19h12.44a2,2,0,0,1,0,4Zm19.53,17.53a2,2,0,0,1-2.82,0L395.75,267a2,2,0,1,1,2.82-2.82l2.24,2.24A2,2,0,0,1,400.81,269.28Zm0-36.24-2.24,2.24a2,2,0,1,1-2.82-2.82l2.24-2.24a2,2,0,0,1,2.82,2.82Zm6.09,18.71h-3.16a2,2,0,0,1,0-4h3.16a2,2,0,0,1,0,4Z"/><path class="cls-31" d="M381.28,318.67A26.67,26.67,0,1,0,408,345.33,26.67,26.67,0,0,0,381.28,318.67Zm15.3,10.2c.18,0,.31.11.49.13a10.85,10.85,0,0,0,1.5.13,2.32,2.32,0,0,1,.88.11c.26.11.31.66.25.93a9.14,9.14,0,0,0-.38,1.22,1.41,1.41,0,0,0,.31,1.05c.13.2.21.47.34.66a4.79,4.79,0,0,1,.35.47c.19.31.49.47.36.87-.21.64-.89.62-1.37.93-.25.16-.32.35-.66.46a4.56,4.56,0,0,1-1.33.05c-.31,0-1.12.06-1.34-.29-.08-.12,0-.24,0-.39s.08-.6,0-.72-.84-.13-1-.16a3,3,0,0,0-1.43-.21c-.26.09-.22.15-.4.39a1,1,0,0,1-.92.39,2.76,2.76,0,0,1-.86,0,.9.9,0,0,0-.26-.4l-.24-.16c-.21-.2-.15-.37-.15-.65s0-1,.48-.92c0-1,1.2-.88,1.9-.87a5.18,5.18,0,0,0,1.6-.24c.48-.15.42-.22.4-.65a3.71,3.71,0,0,1,0-1.37,1.07,1.07,0,0,1,.47-.39A1.9,1.9,0,0,1,396.58,328.87Zm-5,19.3a2.82,2.82,0,0,1-1.19.08c-.29,0-.58,0-.87,0A2.25,2.25,0,0,1,388,347c-.12-.23,0-.22-.3-.27a6.15,6.15,0,0,0-1,0c-.5,0-1.17.15-1.51-.3a1.14,1.14,0,0,1-.22-1.05,1.39,1.39,0,0,1,.7-.75,2.67,2.67,0,0,1,1.16,0c.31.09.45.56.65.77s.42.19.59.36a.87.87,0,0,0,.62.76,3.4,3.4,0,0,0,.78,0h1.11c.55,0,1.13-.16,1.25.53C391.88,347.32,391.84,348,391.57,348.17ZM380.46,348c-.35,0-1.25-.07-1.53-.36s-.09-.18-.1-.38a1.78,1.78,0,0,0-.5-1.3,2,2,0,0,0-.51-.32c-.21-.09-.32-.12-.38-.37-.14-.6.33-1.45-.49-1.72-.41-.13-.67-.1-.95-.5a1.23,1.23,0,0,1-.19-.4c-.05-.31.16-.46.24-.73.17-.58-.42-.48-.85-.55a5.58,5.58,0,0,0-1.26-.23,5,5,0,0,0-1.14.26,5.74,5.74,0,0,1-1.37.13,1.77,1.77,0,0,1-1.65-1,4.77,4.77,0,0,1-.34-1.13c0-.16,0-.35,0-.52a2.74,2.74,0,0,0-.29-1c-.14-.38-.4-1.13-.17-1.54s.37-.31.49-.62.5-.78.67-1.22c.24-.63-.68-.39-1.07-.38a4.79,4.79,0,0,1-1.41-.13,4.92,4.92,0,0,1-.61-.15c-.09-.05-.13-.18-.2-.26a1.18,1.18,0,0,0-.31-.24c-.53-.34-1.17-.81-1.24-1.48a4.45,4.45,0,0,1,.1-1.59,4.67,4.67,0,0,0,.16-1.5,2.78,2.78,0,0,0-.13-.65,4.07,4.07,0,0,1,0-.78,4.35,4.35,0,0,1,0-1c.07-.29.4-.54.63-.74A2,2,0,0,1,367,325a3.66,3.66,0,0,1,.74,0,3.13,3.13,0,0,0,1.57-.79c.43-.29.76-.72,1.28-.72h.83a7.71,7.71,0,0,0,2.2-.05c.44-.14.54-.52,1-.18s.4.38.82.37c.86,0,1-.65,1.6-1.13a2.6,2.6,0,0,1,1.18-.47c.34-.1.73-.51,1.08-.53s.64.26.92.47a1.76,1.76,0,0,0,1.23.27,4.07,4.07,0,0,0,.78,0c.37-.07.37-.17.61-.39a3.14,3.14,0,0,1,1.69-.6,1.93,1.93,0,0,1,1,.12c.31.17.48.46.86.52a1.84,1.84,0,0,0,.87-.11c.46-.17.78-.64,1.28-.65s.82-.1,1.24-.12.54.18.87.48a4.76,4.76,0,0,1,.49.62,3.91,3.91,0,0,0,.37.44c.2.13.43,0,.64.18a2.5,2.5,0,0,0,.62.28v-.12c.38-.07.69.33,1,.53s.42.22.63.34a.19.19,0,0,0,.17.16c.14.07.32,0,.45.11a.86.86,0,0,1,.41.65c0,.63,0,1.22-.64,1.46a2.92,2.92,0,0,1-1.28-.1,2.66,2.66,0,0,0-.69-.11c-.1.78-.69.58-1.34.58-.43,0-.77-.13-1.19-.13-.24,0-.62-.08-.79.12s-.11.72-.07,1c.11.77.66,1.14,1.13,1.66a.88.88,0,0,1,0,1.26,4.28,4.28,0,0,1-.93.26,4.48,4.48,0,0,0-.71.22c-.45.11-.71-.38-1.08-.61a3.8,3.8,0,0,0-1.28-.5,2.81,2.81,0,0,0-1.23,0c-.24.16,0,.27-.15.47-.23.42-1.13.11-1.37.62a1,1,0,0,0,.1.88.82.82,0,0,1,.24.25,2.32,2.32,0,0,1,.06.38c-.25.28-.86.28-1.19.37a10.86,10.86,0,0,1-1.46.39c-.41.85.21,2-.29,2.8s-1.52.46-2.11,1a2,2,0,0,0-.5,1.31,2.28,2.28,0,0,0,.17,1.09,2.91,2.91,0,0,1,.09,1.18c0,.53,0,1.05,0,1.57,0,.21-.05.34.07.53a2.47,2.47,0,0,0,1.29.8c.32.11,1,.33,1.13.68a2.83,2.83,0,0,1,0,.77c0,.74.57,1.06,1.13,1.45.26.17.58.34.64.66a1,1,0,0,1-.06.62c-.2.24-1.06.31-1.35.35A5,5,0,0,1,380.46,348Zm21,11.48c-.21.44-.6.59-.9,1s-.61,1.09-1.32,1.24c-.39.08-.37.07-.5.45a11.71,11.71,0,0,1-.6,1.36c-.24.5-.35,1.06-.55,1.59-.11.28,0,.22-.26.3a2.67,2.67,0,0,0-.88.15l-.72.2a11.84,11.84,0,0,1-1.32.26l-.23,0c-.1.12-.08.24-.11.39-.05.31-.05.81-.39.94a2,2,0,0,1-.74,0c-.42-.05-.65-.07-.84-.43a7.29,7.29,0,0,1-.47-1.2,6.26,6.26,0,0,1,0-.75,2,2,0,0,0-.62-1.18c-.63-.58-1.56-.24-2.14-.9a1.49,1.49,0,0,1-.24-1.3c.08-.17.36-.23.47-.39a4.87,4.87,0,0,0,.24-.57c.11-.23.38-.61.29-.87-.14-.41-.67-.61-.76-1.09s.29-.91.64-1.32a1.64,1.64,0,0,0,.23-1.34c-.11-.35-.47-.52-.7-.78a1.56,1.56,0,0,1-.27-.4c-.32-.35-.65-.68-1-1a5,5,0,0,1-1-1.33,7.76,7.76,0,0,1-.44-.92,6.15,6.15,0,0,0-.42-1.32c-.25-.36-.56-.31-1-.3-.68,0-1.12.49-1.83.36-.39-.07-1-.29-1-.72a.7.7,0,0,1,.27-.6,2.26,2.26,0,0,1,.43-.11,4.25,4.25,0,0,1,.91-.31c.33,0,.68,0,1,0-.14-.41.37-.24.53-.14s.28.29.46.39a2.29,2.29,0,0,0,.59.12c.29,0,.51.19.78.25a1.29,1.29,0,0,1,.66.25,4.63,4.63,0,0,1,.56.39c.2.2.24.55.5.7a1.14,1.14,0,0,0,.45.05c.48.06,1.1.7,1.59.47s.47-1.12,1-1.26a5.88,5.88,0,0,1,.74,0,1.61,1.61,0,0,1,.78.19c.73.35.92,1.1,1.39,1.71a1.69,1.69,0,0,0,.94.72,7.52,7.52,0,0,0,1.5,0c.34,0,1-.14,1.28.11a2,2,0,0,1,.33.56,3.48,3.48,0,0,1,.43.69,1.69,1.69,0,0,0,1.13,1c.46.1.94-.05,1.39,0,.24,0,.78.15.92.37s0,.81.05,1.11C402.71,357.49,401.89,358.48,401.43,359.46Z"/><text class="cls-53" transform="translate(427 49.66)"><tspan class="cls-54">L</tspan><tspan x="11.57" y="0">o</tspan><tspan class="cls-55" x="25.1" y="0">r</tspan><tspan class="cls-56" x="33.43" y="0">em ipsum</tspan></text><text class="cls-53" transform="translate(427 155.67)"><tspan class="cls-54">L</tspan><tspan x="11.57" y="0">o</tspan><tspan class="cls-55" x="25.1" y="0">r</tspan><tspan class="cls-56" x="33.43" y="0">em ipsum</tspan></text><text class="cls-53" transform="translate(427 259.29)"><tspan class="cls-54">L</tspan><tspan x="11.57" y="0">o</tspan><tspan class="cls-55" x="25.1" y="0">r</tspan><tspan class="cls-56" x="33.43" y="0">em ipsum</tspan></text><text class="cls-53" transform="translate(431.5 356.07)"><tspan class="cls-54">L</tspan><tspan x="11.57" y="0">o</tspan><tspan class="cls-55" x="25.1" y="0">r</tspan><tspan class="cls-56" x="33.43" y="0">em ipsum</tspan></text><text class="cls-53" transform="translate(435 458.92)"><tspan class="cls-54">L</tspan><tspan x="11.57" y="0">o</tspan><tspan class="cls-55" x="25.1" y="0">r</tspan><tspan class="cls-56" x="33.43" y="0">em ipsum</tspan></text><text class="cls-53" transform="translate(435 550.13)"><tspan class="cls-54">L</tspan><tspan x="11.57" y="0">o</tspan><tspan class="cls-55" x="25.1" y="0">r</tspan><tspan class="cls-56" x="33.43" y="0">em ipsum</tspan></text></g></g></svg>