<svg xmlns="http://www.w3.org/2000/svg" viewBox="0 0 360 180"><defs><style>.cls-1{fill:#43556b;}.cls-2,.cls-22,.cls-27,.cls-29,.cls-42{fill:none;}.cls-2{stroke:#c2b59c;stroke-width:2px;stroke-dasharray:5 5;}.cls-2,.cls-22,.cls-27,.cls-29,.cls-3,.cls-42{stroke-linecap:round;}.cls-2,.cls-22,.cls-27,.cls-29,.cls-33,.cls-42{stroke-miterlimit:10;}.cls-28,.cls-3{fill:#221f1f;}.cls-3{stroke:#221f1f;stroke-linejoin:round;stroke-width:7.04px;}.cls-4{fill:#2ea9e1;}.cls-5{fill:#c2b59c;}.cls-33,.cls-6{fill:#8ec047;}.cls-7{fill:#8e3089;}.cls-8{fill:#e52629;}.cls-9{fill:#f0f1f1;}.cls-10{fill:#e8307a;}.cls-11{fill:#f39327;}.cls-12{fill:#169ecb;}.cls-13{fill:#e8801c;}.cls-14{fill:#d81622;}.cls-15{fill:#7eb531;}.cls-16{fill:#d61f72;}.cls-17{fill:#7e217f;}.cls-18{fill:#fff;}.cls-19{fill:#e7e6e7;}.cls-20{fill:#c7431f;}.cls-21{fill:#ab3117;}.cls-22{stroke:#f0f1f1;stroke-width:3.15px;}.cls-23{fill:#f9ca36;}.cls-24{fill:#e8af2d;}.cls-25{fill:#a6a8ab;}.cls-26{fill:#d0d2d3;}.cls-27,.cls-29{stroke:#403f41;}.cls-27{stroke-width:1.46px;}.cls-29{stroke-width:1.21px;}.cls-30{fill:#403f41;}.cls-31{fill:#78324a;}.cls-32{fill:#6d6f71;}.cls-33{stroke:#066839;stroke-width:2.04px;}.cls-34{fill:#066839;}.cls-35{fill:#e2a541;}.cls-36{fill:#744d29;}.cls-37{fill:#f8f7f7;}.cls-38{fill:#c38728;}.cls-39{fill:#a41925;}.cls-40{fill:#8c1723;}.cls-41{fill:#be202d;}.cls-42{stroke:#478d34;stroke-width:2.94px;}.cls-43{fill:#1b64ae;}.cls-44{fill:#fac69b;}.cls-45{fill:#035794;}.cls-46{fill:#3b2315;}.cls-47{fill:#5f3913;}.cls-48{fill:#939698;}.cls-49{fill:#bbbdbf;}.cls-50{fill:#eb5d81;}.cls-51{fill:#f8d09c;}.cls-52{fill:#ffdc26;}.cls-53{fill:#e8bf1b;}</style></defs><title>bussiness</title><g id="vue-card"><rect class="cls-1" width="360" height="180"/><circle class="cls-2" cx="183.5" cy="58.37" r="17.98"/><polygon class="cls-3" points="180.12 52.47 176.74 58.33 180.12 64.18 186.88 64.18 190.26 58.33 186.88 52.47 180.12 52.47"/><path class="cls-4" d="M180.12,86.43a2,2,0,0,1-1.72-1L175,79.58a2,2,0,0,1,0-2l3.38-5.86a2,2,0,0,1,1.72-1h6.76a2,2,0,0,1,1.72,1L192,77.59a2,2,0,0,1,0,2l-3.38,5.85a2,2,0,0,1-1.72,1Z"/><path class="cls-5" d="M186.88,71a1.78,1.78,0,0,1,1.54.89l3.38,5.85a1.77,1.77,0,0,1,0,1.78l-3.38,5.86a1.78,1.78,0,0,1-1.54.89h-6.76a1.78,1.78,0,0,1-1.54-.89l-3.38-5.86a1.77,1.77,0,0,1,0-1.78l3.38-5.85a1.78,1.78,0,0,1,1.54-.89h6.76m0-.42h-6.76a2.23,2.23,0,0,0-1.91,1.1l-3.38,5.85a2.21,2.21,0,0,0,0,2.2l3.38,5.86a2.23,2.23,0,0,0,1.91,1.1h6.76a2.23,2.23,0,0,0,1.91-1.1l3.38-5.86a2.21,2.21,0,0,0,0-2.2l-3.38-5.85a2.23,2.23,0,0,0-1.91-1.1Z"/><path class="cls-6" d="M180.12,45.92a2,2,0,0,1-1.72-1L175,39.07a2,2,0,0,1,0-2l3.38-5.86a2,2,0,0,1,1.72-1h6.76a2,2,0,0,1,1.72,1L192,37.08a2,2,0,0,1,0,2l-3.38,5.85a2,2,0,0,1-1.72,1Z"/><path class="cls-5" d="M186.88,30.44a1.78,1.78,0,0,1,1.54.89l3.38,5.85a1.77,1.77,0,0,1,0,1.78l-3.38,5.86a1.78,1.78,0,0,1-1.54.89h-6.76a1.78,1.78,0,0,1-1.54-.89L175.2,39a1.77,1.77,0,0,1,0-1.78l3.38-5.85a1.78,1.78,0,0,1,1.54-.89h6.76m0-.42h-6.76a2.23,2.23,0,0,0-1.91,1.1L174.83,37a2.21,2.21,0,0,0,0,2.2L178.21,45a2.23,2.23,0,0,0,1.91,1.1h6.76a2.23,2.23,0,0,0,1.91-1.1l3.38-5.86a2.21,2.21,0,0,0,0-2.2l-3.38-5.85a2.23,2.23,0,0,0-1.91-1.1Z"/><polygon class="cls-3" points="180.12 52.48 176.74 58.33 180.12 64.18 186.88 64.18 190.26 58.33 186.88 52.47 180.12 52.48"/><path class="cls-7" d="M162.58,76.31a2,2,0,0,1-1.72-1l-3.38-5.85a2,2,0,0,1,0-2l3.38-5.86a2,2,0,0,1,1.72-1h6.76a2,2,0,0,1,1.72,1l3.38,5.85a2,2,0,0,1,0,2l-3.37,5.86a2,2,0,0,1-1.73,1Z"/><path class="cls-5" d="M169.34,60.83a1.78,1.78,0,0,1,1.54.88l3.38,5.86a1.77,1.77,0,0,1,0,1.78l-3.38,5.85a1.76,1.76,0,0,1-1.54.89h-6.76A1.79,1.79,0,0,1,161,75.2l-3.38-5.85a1.77,1.77,0,0,1,0-1.78L161,61.72a1.78,1.78,0,0,1,1.54-.89h6.76m0-.43h-6.76a2.21,2.21,0,0,0-1.91,1.11l-3.38,5.85a2.21,2.21,0,0,0,0,2.2l3.39,5.86a2.22,2.22,0,0,0,1.9,1.1h6.76a2.2,2.2,0,0,0,1.91-1.1l3.38-5.85a2.21,2.21,0,0,0,0-2.2l-3.38-5.86a2.23,2.23,0,0,0-1.91-1.1Z"/><path class="cls-8" d="M197.66,56a2,2,0,0,1-1.72-1l-3.38-5.86a2,2,0,0,1,0-2l3.37-5.85a2,2,0,0,1,1.73-1h6.76a2,2,0,0,1,1.72,1l3.38,5.85a2,2,0,0,1,0,2l-3.38,5.86a2,2,0,0,1-1.72,1Z"/><path class="cls-5" d="M204.42,40.56a1.79,1.79,0,0,1,1.54.89l3.38,5.86a1.75,1.75,0,0,1,0,1.77L206,54.94a1.78,1.78,0,0,1-1.54.89h-6.76a1.79,1.79,0,0,1-1.54-.89l-3.38-5.85a1.77,1.77,0,0,1,0-1.78l3.38-5.86a1.78,1.78,0,0,1,1.54-.89h6.76m0-.42h-6.76a2.2,2.2,0,0,0-1.91,1.1l-3.38,5.86a2.21,2.21,0,0,0,0,2.2l3.38,5.85a2.23,2.23,0,0,0,1.91,1.1h6.76a2.2,2.2,0,0,0,1.91-1.1l3.38-5.85a2.23,2.23,0,0,0,0-2.21l-3.39-5.85a2.2,2.2,0,0,0-1.9-1.1Z"/><path class="cls-9" d="M196,58.06l-5.94-10.37a.63.63,0,0,0-.54-.31l-11.94,0a.62.62,0,0,0-.54.31L171,58a.62.62,0,0,0,0,.63L177,69a.64.64,0,0,0,.54.32l11.94,0h0A.64.64,0,0,0,190,69l6-10.33A.6.6,0,0,0,196,58.06Z"/><path class="cls-10" d="M162.59,56a2,2,0,0,1-1.72-1l-3.36-5.87a2,2,0,0,1,0-2l3.4-5.84a2,2,0,0,1,1.72-1l6.77,0a2,2,0,0,1,1.72,1l3.36,5.86a2,2,0,0,1,0,2L171.07,55a2,2,0,0,1-1.72,1Z"/><path class="cls-5" d="M162.64,40.49l6.76,0a1.78,1.78,0,0,1,1.54.89l3.36,5.87a1.79,1.79,0,0,1,0,1.78l-3.4,5.84a1.77,1.77,0,0,1-1.54.88h0l-6.76,0a1.78,1.78,0,0,1-1.54-.89L157.69,49a1.77,1.77,0,0,1,0-1.78l3.4-5.84a1.77,1.77,0,0,1,1.53-.89h0m0-.42h0a2.2,2.2,0,0,0-1.9,1.1L157.33,47a2.21,2.21,0,0,0,0,2.2l3.36,5.87a2.2,2.2,0,0,0,1.91,1.1l6.76,0h0a2.23,2.23,0,0,0,1.91-1.1l3.4-5.84a2.21,2.21,0,0,0,0-2.2L171.3,41.2a2.17,2.17,0,0,0-1.9-1.1l-6.76,0Z"/><path class="cls-11" d="M197.6,76.35a2,2,0,0,1-1.72-1l-3.36-5.87a2,2,0,0,1,0-2l3.4-5.84a2,2,0,0,1,1.72-1l6.76,0a2,2,0,0,1,1.72,1l3.36,5.86a2,2,0,0,1,0,2l-3.4,5.84a2,2,0,0,1-1.72,1Z"/><path class="cls-5" d="M197.65,60.87l6.76,0a1.78,1.78,0,0,1,1.54.89l3.36,5.87a1.77,1.77,0,0,1,0,1.78l-3.4,5.84a1.76,1.76,0,0,1-1.53.88h0l-6.76,0a1.77,1.77,0,0,1-1.54-.9l-3.36-5.86a1.79,1.79,0,0,1,0-1.78l3.4-5.84a1.78,1.78,0,0,1,1.54-.89h0m0-.42h0a2.24,2.24,0,0,0-1.91,1.09l-3.4,5.85a2.21,2.21,0,0,0,0,2.2l3.36,5.86a2.18,2.18,0,0,0,1.9,1.11l6.76,0h0a2.19,2.19,0,0,0,1.9-1.09l3.4-5.84a2.21,2.21,0,0,0,0-2.2l-3.36-5.87a2.23,2.23,0,0,0-1.91-1.11l-6.76,0Z"/><path class="cls-12" d="M188.42,85.33l3.38-5.86a1.77,1.77,0,0,0,0-1.78l-3.38-5.85a1.78,1.78,0,0,0-1.54-.89H183.5V86.22h3.38A1.78,1.78,0,0,0,188.42,85.33Z"/><path class="cls-13" d="M206,75.2l3.38-5.85a1.77,1.77,0,0,0,0-1.78L206,61.72a1.78,1.78,0,0,0-1.54-.89H201V76.09h3.38A1.78,1.78,0,0,0,206,75.2Z"/><path class="cls-14" d="M206,54.88,209.34,49a1.77,1.77,0,0,0,0-1.78L206,41.4a1.76,1.76,0,0,0-1.54-.89H201V55.77h3.38A1.78,1.78,0,0,0,206,54.88Z"/><path class="cls-15" d="M188.42,44.82,191.8,39a1.77,1.77,0,0,0,0-1.78l-3.38-5.85a1.78,1.78,0,0,0-1.54-.89H183.5V45.71h3.38A1.78,1.78,0,0,0,188.42,44.82Z"/><path class="cls-16" d="M174.29,47.2l-3.38-5.85a1.76,1.76,0,0,0-1.54-.89H166V55.73h3.38a1.76,1.76,0,0,0,1.54-.89L174.29,49A1.77,1.77,0,0,0,174.29,47.2Z"/><path class="cls-17" d="M170.91,61.72a1.76,1.76,0,0,0-1.54-.89H166V76.09h3.38a1.76,1.76,0,0,0,1.54-.89l3.38-5.85a1.77,1.77,0,0,0,0-1.78Z"/><path class="cls-18" d="M180.26,33.5a.59.59,0,0,1-.5-.26,1.36,1.36,0,0,1-.18-.76,1.48,1.48,0,0,1,.19-.83.61.61,0,0,1,.54-.28c.45,0,.68.36.68,1.06a1.39,1.39,0,0,1-.19.8A.63.63,0,0,1,180.26,33.5Zm0-1.86c-.25,0-.38.28-.38.83s.12.77.37.77.36-.26.36-.79S180.53,31.64,180.3,31.64Z"/><path class="cls-18" d="M182.64,33h-.25v.5h-.32V33h-.93v-.21l.89-1.35h.36v1.31h.25Zm-.57-.25v-.8a1.34,1.34,0,0,1,0-.19h0a.59.59,0,0,1-.07.14l-.56.85Z"/><polygon class="cls-19" points="196.07 58.37 196.07 58.37 196.07 58.37 196.07 58.37"/><path class="cls-19" d="M196,58.68a.49.49,0,0,0,.08-.23A.49.49,0,0,1,196,58.68Z"/><path class="cls-19" d="M196.07,58.37h0a.68.68,0,0,0-.08-.31l-5.94-10.37a.63.63,0,0,0-.54-.31l-6,0V69.3l5.93,0h0A.64.64,0,0,0,190,69l6-10.33a.49.49,0,0,0,.08-.23A.19.19,0,0,0,196.07,58.37Z"/><path class="cls-18" d="M197.84,43.83a.59.59,0,0,1-.5-.26,1.36,1.36,0,0,1-.18-.76,1.46,1.46,0,0,1,.19-.83.59.59,0,0,1,.54-.28c.45,0,.68.35.68,1.06a1.44,1.44,0,0,1-.19.79A.61.61,0,0,1,197.84,43.83Zm0-1.86c-.25,0-.37.27-.37.82s.12.77.37.77.36-.26.36-.78S198.11,42,197.87,42Z"/><path class="cls-18" d="M198.91,43.75v-.32a.76.76,0,0,0,.41.13.51.51,0,0,0,.34-.1.36.36,0,0,0,.13-.29.3.3,0,0,0-.13-.27.58.58,0,0,0-.37-.1l-.31,0V41.74H200V42h-.77v.52h.17a.73.73,0,0,1,.51.17.59.59,0,0,1,.18.46.64.64,0,0,1-.21.49.8.8,0,0,1-.56.18A1,1,0,0,1,198.91,43.75Z"/><path class="cls-18" d="M197.87,64.14a.59.59,0,0,1-.5-.26,1.36,1.36,0,0,1-.18-.76,1.46,1.46,0,0,1,.19-.83.6.6,0,0,1,.54-.28c.45,0,.68.35.68,1.06a1.36,1.36,0,0,1-.19.79A.61.61,0,0,1,197.87,64.14Zm0-1.86c-.25,0-.38.27-.38.82s.12.77.37.77.36-.26.36-.78S198.14,62.28,197.91,62.28Z"/><path class="cls-18" d="M200.1,62.07v.29a.61.61,0,0,0-.32-.08.49.49,0,0,0-.42.21.9.9,0,0,0-.16.57h0a.5.5,0,0,1,.46-.26.52.52,0,0,1,.42.18.73.73,0,0,1,0,1,.64.64,0,0,1-.48.2.58.58,0,0,1-.51-.25,1.07,1.07,0,0,1-.19-.69,1.45,1.45,0,0,1,.24-.87.79.79,0,0,1,.64-.32A.9.9,0,0,1,200.1,62.07Zm-.54,1a.34.34,0,0,0-.25.11.4.4,0,0,0-.1.26.55.55,0,0,0,.1.31.29.29,0,0,0,.26.13.28.28,0,0,0,.24-.11.46.46,0,0,0,.09-.29.45.45,0,0,0-.09-.3A.31.31,0,0,0,199.56,63.06Z"/><path class="cls-18" d="M180.44,74.22a.56.56,0,0,1-.5-.27,1.31,1.31,0,0,1-.18-.76,1.53,1.53,0,0,1,.18-.82.62.62,0,0,1,.55-.28c.45,0,.68.35.68,1a1.37,1.37,0,0,1-.2.8A.61.61,0,0,1,180.44,74.22Zm0-1.87c-.25,0-.37.28-.37.83s.12.77.36.77.37-.26.37-.78S180.71,72.35,180.47,72.35Z"/><path class="cls-18" d="M182.75,74.18h-1.22v-.27H182V72.45l-.46.12v-.29l.8-.2v1.83h.44Z"/><path class="cls-18" d="M162.79,64.09a.59.59,0,0,1-.5-.26,1.36,1.36,0,0,1-.18-.76,1.48,1.48,0,0,1,.19-.83.64.64,0,0,1,.54-.28c.46,0,.68.36.68,1.06a1.39,1.39,0,0,1-.19.8A.63.63,0,0,1,162.79,64.09Zm0-1.86c-.25,0-.38.27-.38.83s.12.77.37.77.36-.26.36-.79S163.06,62.23,162.83,62.23Z"/><path class="cls-18" d="M165.07,64.06h-1.29v-.28l.57-.55a2.67,2.67,0,0,0,.31-.35.53.53,0,0,0,.09-.3.3.3,0,0,0-.1-.25.37.37,0,0,0-.27-.09.72.72,0,0,0-.5.23v-.32a1,1,0,0,1,.59-.19.64.64,0,0,1,.45.15.54.54,0,0,1,.17.42.78.78,0,0,1-.1.36,2.7,2.7,0,0,1-.4.47l-.43.4h.91Z"/><path class="cls-18" d="M162.79,43.72a.56.56,0,0,1-.5-.26,1.33,1.33,0,0,1-.18-.76,1.42,1.42,0,0,1,.19-.82.61.61,0,0,1,.54-.28c.46,0,.68.35.68,1a1.37,1.37,0,0,1-.19.8A.63.63,0,0,1,162.79,43.72Zm0-1.86c-.25,0-.38.28-.38.83s.12.77.37.77.36-.26.36-.79S163.06,41.86,162.83,41.86Z"/><path class="cls-18" d="M163.83,43.61V43.3a.69.69,0,0,0,.45.16.54.54,0,0,0,.33-.09.32.32,0,0,0,.12-.26c0-.23-.17-.35-.53-.35H164V42.5h.15q.48,0,.48-.33c0-.21-.13-.31-.37-.31a.6.6,0,0,0-.39.15v-.3a1.07,1.07,0,0,1,.49-.11.66.66,0,0,1,.44.13.46.46,0,0,1,.17.36.5.5,0,0,1-.42.52h0a.54.54,0,0,1,.36.15.49.49,0,0,1,.12.34.53.53,0,0,1-.2.44.81.81,0,0,1-.55.17A.87.87,0,0,1,163.83,43.61Z"/><rect class="cls-9" x="196.34" y="72.47" width="9.5" height="0.33"/><rect class="cls-20" x="196.72" y="68.67" width="1.52" height="3.37"/><rect class="cls-21" x="197.47" y="68.67" width="0.76" height="3.37"/><rect class="cls-20" x="199.1" y="67.42" width="1.52" height="4.63"/><rect class="cls-21" x="199.86" y="67.42" width="0.76" height="4.63"/><rect class="cls-20" x="201.49" y="67.87" width="1.52" height="4.17"/><rect class="cls-21" x="202.25" y="67.87" width="0.76" height="4.17"/><rect class="cls-20" x="203.88" y="66.27" width="1.52" height="5.77"/><rect class="cls-21" x="204.64" y="66.27" width="0.76" height="5.77"/><polyline class="cls-22" points="204.64 64.79 202.25 66.76 199.86 66.25 197.43 67.69"/><polyline class="cls-22" points="204.01 64.68 204.84 64.64 204.53 65.51"/><path class="cls-23" d="M186.26,78.15a2.8,2.8,0,0,0-5.6.1c.3,1.75,1.15,2,1.61,3.79,1,.67.92.52,2.53.14.23-1.69,1.46-2.7,1.46-3.93Z"/><path class="cls-24" d="M186.26,78.25v-.1a2.82,2.82,0,0,0-2.72-2.7v7c.28,0,.65-.16,1.26-.3C185,80.49,186.26,79.48,186.26,78.25Z"/><path class="cls-25" d="M182.57,82.89v.87a.44.44,0,0,0,.39.48h1.15a.44.44,0,0,0,.39-.48v-.87Z"/><path class="cls-26" d="M182.57,82.89v.87a.44.44,0,0,0,.39.48h.57V82.89Z"/><path class="cls-25" d="M184.5,83.76v-.87h-1v1.35h.58A.44.44,0,0,0,184.5,83.76Z"/><path class="cls-27" d="M182.19,78.79s.53,1.22.69,1.67a6.88,6.88,0,0,1,.17,1.53"/><path class="cls-27" d="M184.92,78.79s-.53,1.22-.69,1.67a6.88,6.88,0,0,0-.17,1.53"/><path class="cls-28" d="M182.09,81.83v1.4a.48.48,0,0,0,.48.48h1.93a.48.48,0,0,0,.48-.48v-1.4Z"/><path class="cls-29" d="M183,79.23a.33.33,0,0,1-.28.37c-.16,0-.28-.16-.28-.37a.32.32,0,0,1,.28-.36A.33.33,0,0,1,183,79.23Z"/><path class="cls-29" d="M183.55,79.23c0,.21-.12.37-.28.37s-.27-.16-.27-.37.12-.36.27-.36A.32.32,0,0,1,183.55,79.23Z"/><path class="cls-29" d="M184.11,79.23c0,.21-.12.37-.28.37a.33.33,0,0,1-.28-.37.33.33,0,0,1,.28-.36A.32.32,0,0,1,184.11,79.23Z"/><path class="cls-29" d="M184.67,79.23c0,.21-.12.37-.28.37a.33.33,0,0,1-.28-.37.33.33,0,0,1,.28-.36A.32.32,0,0,1,184.67,79.23Z"/><rect class="cls-30" x="181.98" y="82.06" width="3.1" height="0.26" rx="0.07" ry="0.07"/><rect class="cls-30" x="181.98" y="82.48" width="3.1" height="0.26" rx="0.07" ry="0.07"/><rect class="cls-30" x="181.99" y="82.89" width="3.1" height="0.26" rx="0.07" ry="0.07"/><path class="cls-25" d="M205.29,49.28a4.24,4.24,0,1,1-4.23-4.23A4.23,4.23,0,0,1,205.29,49.28Z"/><circle class="cls-9" cx="201.06" cy="49.28" r="3.53"/><path class="cls-26" d="M201.06,52.81a3.53,3.53,0,0,1,0-7.06h0v-.7h0a4.24,4.24,0,1,0,0,8.47h0v-.71Z"/><path class="cls-18" d="M197.53,49.28a3.53,3.53,0,0,0,3.53,3.53h0V45.75h0A3.53,3.53,0,0,0,197.53,49.28Z"/><rect class="cls-31" x="200.87" y="45.49" width="0.38" height="0.98" rx="0.16" ry="0.16"/><rect class="cls-32" x="197.27" y="49.09" width="0.98" height="0.38" rx="0.16" ry="0.16"/><rect class="cls-32" x="203.87" y="49.09" width="0.98" height="0.38" rx="0.16" ry="0.16"/><rect class="cls-32" x="200.87" y="45.49" width="0.38" height="0.98" rx="0.16" ry="0.16"/><rect class="cls-32" x="200.87" y="52.09" width="0.38" height="0.98" rx="0.16" ry="0.16"/><rect class="cls-30" x="200.1" y="47" width="0.38" height="3.34" rx="0.16" ry="0.16" transform="translate(24.25 155.88) rotate(-45)"/><path class="cls-30" d="M200.92,49.86a.16.16,0,0,1-.24,0l0,0a.16.16,0,0,1,0-.24L202.22,48a.17.17,0,0,1,.23,0l0,0a.17.17,0,0,1,0,.23Z"/><path class="cls-33" d="M168,66.07a15.45,15.45,0,0,0-1.56,3.26l-1.64-.48c.28-1.15.37-2.31.61-3.53A11.49,11.49,0,0,1,168,66.07Z"/><path class="cls-34" d="M166.3,66.71c.49.14.74.55.57.9a.86.86,0,0,1-1,.43.82.82,0,0,1-.6-.88A.76.76,0,0,1,166.3,66.71Z"/><path class="cls-34" d="M164.75,68.85l.44.13a.47.47,0,0,0-.34-.57C164.82,68.56,164.79,68.7,164.75,68.85Z"/><path class="cls-6" d="M165.91,67.18c-.06,0-.11,0-.13.11s0,.15.05.16a.08.08,0,0,0,.08,0,1,1,0,0,0,.11-.16.44.44,0,0,1,.16-.17.3.3,0,0,1,.21,0,.22.22,0,0,1,.17.16.33.33,0,0,1,0,.24.34.34,0,0,1-.39.26,1.36,1.36,0,0,1,0-.17c.09,0,.16,0,.2-.14s0-.16-.07-.18-.07,0-.09,0a.49.49,0,0,0-.12.16.52.52,0,0,1-.15.17.25.25,0,0,1-.17,0,.23.23,0,0,1-.15-.12.35.35,0,0,1,0-.25c.05-.2.16-.28.32-.25C165.94,67.06,165.92,67.12,165.91,67.18Z"/><path class="cls-6" d="M165.67,67.17l0,.16-.17,0,0-.16Z"/><path class="cls-6" d="M166.72,67.47a1,1,0,0,1-.07.15l-.17-.05.06-.16Z"/><path class="cls-34" d="M166.37,69.33c0-.15.09-.29.14-.43a.46.46,0,0,0-.58.3Z"/><path class="cls-34" d="M167.91,66.05c-.22-.09-.45-.18-.67-.25-.11.24.08.53.44.66C167.75,66.32,167.83,66.19,167.91,66.05Z"/><path class="cls-34" d="M165.36,65.32c0,.16-.05.31-.08.47.37.06.72-.07.79-.33Z"/><path class="cls-34" d="M165.8,68.33a.16.16,0,0,1,.11.19.16.16,0,1,1-.31-.09A.15.15,0,0,1,165.8,68.33Z"/><path class="cls-34" d="M166.5,66.1c.13,0,.19.14.16.22a.22.22,0,0,1-.26.09c-.12,0-.19-.12-.16-.21S166.38,66.07,166.5,66.1Z"/><path class="cls-33" d="M167.55,65.48a15.87,15.87,0,0,0-1.07,3.46l-1.69-.25c.11-1.17,0-2.33.1-3.58A11.85,11.85,0,0,1,167.55,65.48Z"/><path class="cls-34" d="M166,66.35c.51.07.81.45.7.81a.86.86,0,0,1-.92.57.82.82,0,0,1-.72-.78C165.07,66.57,165.51,66.28,166,66.35Z"/><path class="cls-34" d="M164.79,68.69l.45.07a.48.48,0,0,0-.42-.52C164.82,68.39,164.8,68.54,164.79,68.69Z"/><path class="cls-6" d="M165.7,66.87c-.07,0-.11,0-.12.14s0,.14.07.15a.1.1,0,0,0,.09,0,1.48,1.48,0,0,0,.08-.17.4.4,0,0,1,.13-.19.36.36,0,0,1,.21,0,.24.24,0,0,1,.19.14.33.33,0,0,1,0,.24.35.35,0,0,1-.35.32c0-.06,0-.12,0-.18a.17.17,0,0,0,.18-.16q0-.17-.09-.18a.12.12,0,0,0-.1,0,.76.76,0,0,0-.09.17.48.48,0,0,1-.12.19.25.25,0,0,1-.17,0,.23.23,0,0,1-.17-.1.37.37,0,0,1,0-.25c0-.2.11-.3.28-.29C165.71,66.75,165.7,66.81,165.7,66.87Z"/><path class="cls-6" d="M165.46,66.9l0,.16-.18,0a.91.91,0,0,0,0-.17Z"/><path class="cls-6" d="M166.54,67a1,1,0,0,0,0,.17l-.18,0a1,1,0,0,1,0-.17Z"/><path class="cls-34" d="M166.46,68.93c0-.15,0-.29.08-.44a.45.45,0,0,0-.53.38Z"/><path class="cls-34" d="M167.51,65.47l-.7-.16c-.07.26.16.52.53.6C167.4,65.76,167.46,65.62,167.51,65.47Z"/><path class="cls-34" d="M164.89,65.11c0,.16,0,.32,0,.48.38,0,.7-.17.74-.44Z"/><path class="cls-34" d="M165.75,68a.16.16,0,0,1,.14.17.16.16,0,1,1-.32,0A.15.15,0,0,1,165.75,68Z"/><path class="cls-34" d="M166.13,65.72c.12,0,.21.11.19.2a.21.21,0,0,1-.25.12c-.12,0-.2-.09-.19-.18A.23.23,0,0,1,166.13,65.72Z"/><path class="cls-19" d="M164.79,69.16l-1-1.25s0-.39.65-.37,1.3.29,1.89.32a4.94,4.94,0,0,0,1.6-.21l-1,1.51Z"/><path class="cls-19" d="M168.19,71.47a17.27,17.27,0,0,0-1.25-2.31h-2.15a24.42,24.42,0,0,0-1.23,2.31c-.74,1.63-.32,2.16.55,2.55a7.48,7.48,0,0,0,3.52,0C168.5,73.63,168.72,72.8,168.19,71.47Z"/><path class="cls-35" d="M166.26,71.3c0-.16-.15-.23-.43-.23s-.41.07-.41.21a.2.2,0,0,0,.13.2,2.82,2.82,0,0,0,.53.14,1.12,1.12,0,0,1,.59.26.59.59,0,0,1,.19.46.56.56,0,0,1-.31.52,1.3,1.3,0,0,1-.68.18c-.63,0-1-.24-1.07-.72l.52,0c0,.25.22.38.55.38s.47-.1.47-.31a.21.21,0,0,0-.12-.21,1.65,1.65,0,0,0-.53-.15,1.41,1.41,0,0,1-.6-.25.58.58,0,0,1-.18-.42.54.54,0,0,1,.24-.45,1.07,1.07,0,0,1,.69-.19c.6,0,.92.2.94.6Z"/><rect class="cls-35" x="165.64" y="70.26" width="0.45" height="0.49" transform="translate(94.73 236.11) rotate(-89.78)"/><rect class="cls-35" x="165.63" y="72.93" width="0.45" height="0.49" transform="translate(92.02 238.75) rotate(-89.77)"/><path class="cls-36" d="M167.14,69.21a.09.09,0,0,1-.09.08h-2.39a.1.1,0,0,1-.1-.08v-.07s.05-.07.1-.07h2.39a.08.08,0,0,1,.09.07Z"/><path class="cls-26" d="M166.48,73.89a1.4,1.4,0,0,0,1.37-.15,1.32,1.32,0,0,0,.49-1.14,3,3,0,0,0-.25-1,1.64,1.64,0,0,1-.1,1,1.46,1.46,0,0,1-1.24.68C166.47,73.38,166.08,73.6,166.48,73.89Z"/><path class="cls-26" d="M166.24,69a3.6,3.6,0,0,0,1.12-.65c.42-.44-.41.65-.41.65Z"/><path class="cls-37" d="M164.1,68l0,0a.75.75,0,0,1,.09.09,1.87,1.87,0,0,1,.25.29,3.72,3.72,0,0,1,.22.31l.05.12a.06.06,0,0,1,0,0l0,0a.38.38,0,0,1-.09-.09,1.87,1.87,0,0,1-.25-.29,2.64,2.64,0,0,1-.22-.32l-.06-.11A.11.11,0,0,0,164.1,68Z"/><path class="cls-37" d="M164.86,69.44a.84.84,0,0,0,0,.1c0,.07-.06.16-.1.26s-.22.49-.35.76-.29.54-.41.73l-.15.24-.05.09,0-.1c0-.07.06-.16.1-.26s.22-.49.36-.76a7.75,7.75,0,0,1,.4-.73l.15-.24A.37.37,0,0,1,164.86,69.44Z"/><path class="cls-24" d="M164.75,73.5a1,1,0,1,1-.7-1.28A1,1,0,0,1,164.75,73.5Z"/><path class="cls-23" d="M164.57,73.45a.84.84,0,1,1-.57-1A.84.84,0,0,1,164.57,73.45Z"/><path class="cls-38" d="M164,73c0-.06,0-.11-.14-.15s-.18,0-.2,0a.1.1,0,0,0,0,.1.92.92,0,0,0,.2.12.43.43,0,0,1,.21.18.25.25,0,0,1,0,.21.24.24,0,0,1-.19.17.45.45,0,0,1-.3,0c-.25-.07-.37-.21-.35-.42l.22,0c0,.1,0,.18.18.22s.2,0,.23-.07a.12.12,0,0,0,0-.1,1,1,0,0,0-.2-.13.51.51,0,0,1-.22-.17.25.25,0,0,1,0-.19.22.22,0,0,1,.15-.16.47.47,0,0,1,.31,0c.24.07.35.19.31.36Z"/><rect class="cls-38" x="163.84" y="72.57" width="0.19" height="0.21" transform="translate(47.15 208.75) rotate(-73.27)"/><rect class="cls-38" x="163.52" y="73.66" width="0.19" height="0.21" transform="translate(45.93 209.26) rotate(-73.29)"/><path class="cls-18" d="M163,73a.45.45,0,0,1,.07-.23.42.42,0,0,1,.23-.06.26.26,0,0,1-.3-.3.5.5,0,0,1-.06.24.39.39,0,0,1-.23.06A.24.24,0,0,1,163,73Z"/><path class="cls-18" d="M163.16,73a.2.2,0,0,1,0-.09l.08,0-.08,0a.15.15,0,0,1,0-.08.15.15,0,0,1,0,.08l-.08,0,.08,0A.2.2,0,0,1,163.16,73Z"/><path class="cls-18" d="M162.78,73.26a.35.35,0,0,1,0-.12.24.24,0,0,1,.11,0s-.1,0-.11,0,0-.07,0-.11a.24.24,0,0,1,0,.11.21.21,0,0,1-.12,0,.12.12,0,0,1,.15.15Z"/><path class="cls-39" d="M182.54,42c.05.09-.06.25-.25.36l-.15.1c-.19.11-.39.14-.44.05l-2.21-3.63c-.05-.09.06-.25.24-.36l.16-.1c.19-.11.38-.13.44,0Z"/><path class="cls-40" d="M180.84,41.12l.89-.42-1.4-2.31c-.06-.08-.25-.06-.44,0l-.16.1c-.18.11-.29.27-.24.36Z"/><path class="cls-26" d="M185.7,37a.6.6,0,0,1-1.09.51A.6.6,0,0,1,185.7,37Z"/><path class="cls-26" d="M180.56,39.43a.6.6,0,0,1-.29.8.61.61,0,0,1-.81-.29.6.6,0,0,1,.29-.8A.61.61,0,0,1,180.56,39.43Z"/><rect class="cls-41" x="179.72" y="38.26" width="1.44" height="2.62" transform="translate(0.25 80.25) rotate(-25.09)"/><rect class="cls-39" x="180" y="39.51" width="1.44" height="1.31" transform="translate(0.02 80.42) rotate(-25.09)"/><path class="cls-9" d="M185.84,39.42s-1.38.12-2.24.26a13.21,13.21,0,0,0-1.95.77l-1.11-2.37a11.63,11.63,0,0,0,1.78-1c.8-.72,1.69-1.59,1.69-1.59Z"/><path class="cls-41" d="M186.32,39.37a.19.19,0,0,1-.08.26l-.08,0a.2.2,0,0,1-.25-.11l-2-4.18a.19.19,0,0,1,.08-.26l.08,0a.19.19,0,0,1,.25.1Z"/><path class="cls-26" d="M181.06,39.19l.59,1.26a13.21,13.21,0,0,1,1.95-.77c.86-.14,2.24-.26,2.24-.26l-.94-2Z"/><path class="cls-39" d="M184.9,37.4l1,2.15a.21.21,0,0,0,.26.12l.08,0a.21.21,0,0,0,.08-.28l-1-2.15Z"/><path class="cls-42" d="M185.8,35.75a1.68,1.68,0,0,1,1,2.15"/><path class="cls-42" d="M186.33,34.25a3.27,3.27,0,0,1,2,4.2"/><path class="cls-42" d="M186.06,35a2.48,2.48,0,0,1,1.48,3.17"/><polygon class="cls-9" points="184.83 62.09 182.28 61.99 179.67 62.99 179.67 69.28 187.3 69.31 187.3 62.99 184.83 62.09"/><polygon class="cls-43" points="183.22 63.6 182.82 69.29 184.29 69.3 183.81 63.6 183.22 63.6"/><path class="cls-44" d="M188.78,72.7l-.64.73s-.15.29,0,.38.34-.14.34-.14a2.42,2.42,0,0,0-.21.81c0,.23.28.38.47.44a.72.72,0,0,0,.71-.4,3.46,3.46,0,0,0,.34-1.42A5.91,5.91,0,0,0,188.78,72.7Z"/><polygon class="cls-9" points="188.51 72.84 190 73.33 190.13 72.92 188.64 72.43 188.51 72.84"/><path class="cls-45" d="M183.51,62.3s-.59,0-.74.28c-.32.6.45,1.11.45,1.11h.59s.64-.46.46-.91S183.51,62.3,183.51,62.3Z"/><polygon class="cls-19" points="181.51 62.08 182.43 63.37 183.54 62.25 181.68 61.02 181.51 62.08"/><polygon class="cls-19" points="183.47 62.25 184.59 63.37 185.42 62.16 185.34 61.02 183.47 62.25"/><path class="cls-44" d="M179.2,56.6c-.42.12-.32.76-.32,1a2.14,2.14,0,0,0,.58,1.16c.59.24.59-.64.59-.64v-1S179.61,56.48,179.2,56.6Z"/><path class="cls-44" d="M187.69,56.57c-.42-.12-.85.5-.85.5v1s0,.91.59.65a2.17,2.17,0,0,0,.58-1.17C188,57.33,188.11,56.7,187.69,56.57Z"/><path class="cls-44" d="M184.5,52.12h-2.07c-1.51,0-2.73,1.62-2.73,3.61v2.75c0,2,2.05,3.39,2.73,3.61a3.4,3.4,0,0,0,2.07,0,4.37,4.37,0,0,0,2.72-3.61V55.73C187.22,53.74,186,52.12,184.5,52.12Z"/><path class="cls-46" d="M179.7,57.29a27.79,27.79,0,0,0,1-4.27l-1.19.39S179.46,57.49,179.7,57.29Z"/><path class="cls-46" d="M186.33,53.26a34.39,34.39,0,0,0,.93,4.12c.22.18.16-3.51.16-3.51Z"/><path class="cls-47" d="M188.37,52.47a2.91,2.91,0,0,1-1.44-.09,1.23,1.23,0,0,0,.35-1,2.58,2.58,0,0,1-2.19.11c-.47-.14-2.54-.92-4.22,0a3.14,3.14,0,0,0-1.54,2.14c2.64.64,2.88,1.14,5.1,1.19a5.06,5.06,0,0,0,2.76-.68C188.11,53.65,188.5,52.45,188.37,52.47Z"/><path class="cls-28" d="M177.68,68.15a4.36,4.36,0,0,1,1.77-2.9L181.68,62a17.19,17.19,0,0,0-2.73.59A8.71,8.71,0,0,0,176,67.31L177,69a.64.64,0,0,0,.54.32h.21A6.14,6.14,0,0,1,177.68,68.15Z"/><path class="cls-28" d="M179.79,62.33l-.37,2.86s0,2,.09,4.09l4.11,0L181.68,62Z"/><polygon class="cls-30" points="181.12 61.99 180.63 64.06 181.42 64.86 181.35 65.48 183.5 69.3 183.63 69.3 181.57 61.55 181.12 61.99"/><path class="cls-28" d="M189.44,69.32h-.14a14.45,14.45,0,0,1-.82,3.18l1.68.54a11.22,11.22,0,0,0,1-4.66,5.1,5.1,0,0,0-.12-1.11L190,69A.64.64,0,0,1,189.44,69.32Z"/><path class="cls-28" d="M188.05,62.58a17.19,17.19,0,0,0-2.73-.59l2.23,3.26a4.36,4.36,0,0,1,1.77,2.9,5.76,5.76,0,0,1,0,1.17h.14A.64.64,0,0,0,190,69l1-1.74A8.75,8.75,0,0,0,188.05,62.58Z"/><path class="cls-28" d="M187.21,62.33,185.32,62l-1.94,7.31h4.11c0-2.12.09-4.12.09-4.12Z"/><polygon class="cls-30" points="185.58 64.86 186.38 64.06 185.88 61.99 185.43 61.55 183.37 69.3 183.52 69.3 185.9 65.48 185.58 64.86"/><polygon class="cls-9" points="162.9 45.32 162.9 53.39 168.93 53.39 168.93 46.65 167.6 45.32 162.9 45.32"/><polygon class="cls-26" points="168.93 46.65 167.6 45.32 167.6 46.65 168.93 46.65"/><rect class="cls-48" x="163.86" y="47.6" width="4.2" height="0.37"/><rect class="cls-49" x="163.86" y="48.28" width="4.2" height="0.37"/><rect class="cls-49" x="163.86" y="48.95" width="4.2" height="0.37"/><rect class="cls-48" x="163.9" y="46.47" width="2.49" height="0.37"/><rect class="cls-49" x="163.86" y="49.62" width="4.2" height="0.37"/><rect class="cls-48" x="163.86" y="50.64" width="4.2" height="0.37"/><rect class="cls-49" x="163.86" y="51.32" width="4.2" height="0.37"/><rect class="cls-49" x="163.86" y="51.99" width="4.2" height="0.37"/><rect class="cls-50" x="168.81" y="51.91" width="1.36" height="1.13" rx="0.16" ry="0.16" transform="translate(12.54 135.22) rotate(-45)"/><polygon class="cls-51" points="166.69 48.7 165.02 48.06 165.71 49.68 166.69 48.7"/><polygon class="cls-28" points="165.6 48.28 165.02 48.06 165.26 48.62 165.6 48.28"/><rect class="cls-52" x="167.02" y="48.57" width="1.38" height="4.27" transform="translate(13.25 133.41) rotate(-44.99)"/><rect class="cls-9" x="168.66" y="52.16" width="1.38" height="0.35" transform="translate(12.59 135.07) rotate(-45)"/><rect class="cls-53" x="167.12" y="48.81" width="0.69" height="4.27" transform="translate(13.03 133.34) rotate(-45)"/></g></svg>