<svg xmlns="http://www.w3.org/2000/svg" viewBox="0 0 360 180"><defs><style>.cls-1{fill:#43556b;}.cls-2{fill:#9b4a94;}.cls-3{fill:#672575;}.cls-4{fill:#823185;}.cls-5{fill:#fff;}</style></defs><title>c-card</title><g id="c-card"><rect class="cls-1" width="360" height="180"/><path id="_Görbe_" data-name="&lt;Görbe&gt;" class="cls-2" d="M211.14,53.3a6.15,6.15,0,0,0-.76-3.11,6,6,0,0,0-2.26-2.2q-12.44-7.17-24.88-14.33a6.11,6.11,0,0,0-6.62.07c-3.3,1.94-19.82,11.41-24.74,14.26a5.76,5.76,0,0,0-3,5.31V82.14a6.17,6.17,0,0,0,.73,3,6,6,0,0,0,2.28,2.26c4.93,2.85,21.45,12.31,24.75,14.26a6.11,6.11,0,0,0,6.62.07q12.44-7.19,24.89-14.34a5.94,5.94,0,0,0,2.28-2.25,6.17,6.17,0,0,0,.73-3V53.3"/><path id="_Görbe_2" data-name="&lt;Görbe&gt;" class="cls-3" d="M180.1,67.63,149.59,85.19a6,6,0,0,0,2.28,2.26c4.93,2.85,21.45,12.31,24.75,14.26a6.11,6.11,0,0,0,6.62.07q12.44-7.19,24.89-14.34a5.94,5.94,0,0,0,2.28-2.25L180.1,67.63"/><path id="_Görbe_3" data-name="&lt;Görbe&gt;" class="cls-3" d="M171,72.83A10.3,10.3,0,0,0,189,72.77l-8.88-5.14-9,5.2"/><path id="_Görbe_4" data-name="&lt;Görbe&gt;" class="cls-4" d="M211.08,53.3a6.26,6.26,0,0,0-.77-3.11L180,67.63l30.32,17.56a6.17,6.17,0,0,0,.73-3V53.3"/><path id="_Görbe_5" data-name="&lt;Görbe&gt;" class="cls-5" d="M190.33,72.77a10.29,10.29,0,1,1-.06-10.22l9-5.18a20.68,20.68,0,1,0,0,20.61l-9-5.21"/><g id="_Csoport_" data-name="&lt;Csoport&gt;"><rect id="_Téglalap_" data-name="&lt;Téglalap&gt;" class="cls-5" x="198.49" y="62.83" width="2.05" height="9.91"/><rect id="_Téglalap_2" data-name="&lt;Téglalap&gt;" class="cls-5" x="203.02" y="62.83" width="2.05" height="9.91"/><rect id="_Téglalap_3" data-name="&lt;Téglalap&gt;" class="cls-5" x="200.75" y="60.56" width="2.05" height="9.91" transform="translate(267.29 -136.26) rotate(90)"/><rect id="_Téglalap_4" data-name="&lt;Téglalap&gt;" class="cls-5" x="200.75" y="65.1" width="2.05" height="9.91" transform="translate(271.83 -131.72) rotate(90)"/></g></g></svg>