<svg id="Réteg_1" data-name="Réteg 1" xmlns="http://www.w3.org/2000/svg" viewBox="0 0 651.06 334.55"><defs><style>.cls-1{fill:#fff;}.cls-1,.cls-11,.cls-12,.cls-13,.cls-15,.cls-16,.cls-17,.cls-18,.cls-19,.cls-22,.cls-23,.cls-24,.cls-3,.cls-4,.cls-5,.cls-6,.cls-7,.cls-8{stroke:#34508b;}.cls-1,.cls-11,.cls-12,.cls-13,.cls-14,.cls-15,.cls-16,.cls-17,.cls-18,.cls-19,.cls-22,.cls-23,.cls-24,.cls-3,.cls-4,.cls-5,.cls-6,.cls-7,.cls-8{stroke-linecap:round;stroke-linejoin:round;stroke-width:3px;}.cls-11,.cls-2{fill:#f7ab6f;}.cls-14,.cls-15,.cls-18,.cls-22,.cls-23,.cls-24,.cls-3{fill:none;}.cls-4{fill:#ff6aa9;}.cls-10,.cls-20,.cls-5{fill:#34508b;}.cls-6{fill:#62c3ef;}.cls-7{fill:#a5d996;}.cls-8,.cls-9{fill:#fbf8f3;}.cls-12{fill:#3bddba;}.cls-13{fill:#dcdee0;}.cls-14{stroke:#f7ab6f;}.cls-15{stroke-dasharray:7.95 7.95;}.cls-16{fill:#ffd3a2;}.cls-17{fill:#ff9f9e;}.cls-18{stroke-dasharray:8;}.cls-19{fill:#fffaad;}.cls-20{font-size:20.37px;font-family:Montserrat-Bold, Montserrat;font-weight:700;}.cls-21{letter-spacing:-0.02em;}.cls-22{stroke-dasharray:7.04 7.04;}.cls-23{stroke-dasharray:7.93 7.93;}.cls-24{stroke-dasharray:4.21 4.21;}</style></defs><title>tanulni</title><g id="_Csoport_" data-name="&lt;Csoport&gt;"><rect id="_Téglalap_" data-name="&lt;Téglalap&gt;" class="cls-1" x="502.52" y="205.85" width="147.04" height="88.02"/><g id="_Csoport_2" data-name="&lt;Csoport&gt;"><g id="_Csoport_3" data-name="&lt;Csoport&gt;"><g id="_Csoport_4" data-name="&lt;Csoport&gt;"><polygon id="_Görbe_" data-name="&lt;Görbe&gt;" class="cls-2" points="601.61 233.24 605.45 229.74 604.4 224.66 609.56 224.09 611.7 219.35 616.21 221.93 620.72 219.35 622.86 224.09 628.02 224.66 626.97 229.74 630.81 233.24 626.97 236.74 628.02 241.82 622.86 242.39 620.72 247.13 616.21 244.55 611.7 247.13 609.56 242.39 604.4 241.82 605.45 236.74 601.61 233.24"/><polygon id="_Görbe_2" data-name="&lt;Görbe&gt;" class="cls-3" points="601.61 233.24 605.45 229.74 604.4 224.66 609.56 224.09 611.7 219.35 616.21 221.93 620.72 219.35 622.86 224.09 628.02 224.66 626.97 229.74 630.81 233.24 626.97 236.74 628.02 241.82 622.86 242.39 620.72 247.13 616.21 244.55 611.7 247.13 609.56 242.39 604.4 241.82 605.45 236.74 601.61 233.24"/></g><circle id="_Görbe_3" data-name="&lt;Görbe&gt;" class="cls-4" cx="616.21" cy="233.24" r="6.3"/></g><rect id="_Téglalap_2" data-name="&lt;Téglalap&gt;" class="cls-5" x="519.61" y="219.35" width="49.2" height="5.25"/><rect id="_Téglalap_3" data-name="&lt;Téglalap&gt;" class="cls-5" x="519.61" y="233.24" width="49.2" height="5.25"/><line id="_Görbe_4" data-name="&lt;Görbe&gt;" class="cls-3" x1="519.61" y1="259.35" x2="632.48" y2="259.35"/><line id="_Görbe_5" data-name="&lt;Görbe&gt;" class="cls-3" x1="585.09" y1="266.54" x2="632.48" y2="266.54"/><line id="_Görbe_6" data-name="&lt;Görbe&gt;" class="cls-3" x1="585.09" y1="273.46" x2="632.48" y2="273.46"/><line id="_Görbe_7" data-name="&lt;Görbe&gt;" class="cls-3" x1="585.09" y1="280.38" x2="632.48" y2="280.38"/></g></g><g id="_Csoport_5" data-name="&lt;Csoport&gt;"><g id="_Csoport_6" data-name="&lt;Csoport&gt;"><circle id="_Görbe_8" data-name="&lt;Görbe&gt;" class="cls-6" cx="447.94" cy="105.67" r="60.06"/><path id="_Görbe_9" data-name="&lt;Görbe&gt;" class="cls-7" d="M508,105.67a60.05,60.05,0,0,0-60.05-60.06q-1.62,0-3.21.09c-5.1,9.07-6.87,18.71-10.11,28.48A7.19,7.19,0,0,1,443.33,85c-2.33,3.19-6.7,3.9-10.2,5.75A16.57,16.57,0,0,0,425,108.6a29.4,29.4,0,0,1,.91,4c.1,1.19-.08,2.4.13,3.58.53,3,3.53,5,6.52,5.29s5.95-.88,8.58-2.33c3.51-1.93,7.27-4.53,11.15-3.54,3.38.87,6.09,4.38,9.54,3.85,2.48-.38,4.09-2.72,5.89-4.48s4.94-3,6.65-1.13a21.2,21.2,0,0,1,3.87,13.59,18.19,18.19,0,0,0,0,5.26c.41,1.71,1.86,3.35,3.62,3.23,4.05-.26,3.78-8.11,7.82-8.42,2.2-.16,3.73,2.41,3.53,4.6s-1.53,4.08-2.49,6.06c-1.69,3.46-.86,5.53,1.25,8.31C502.6,136.44,508,120.06,508,105.67Z"/></g><path id="_Görbe_10" data-name="&lt;Görbe&gt;" class="cls-5" d="M487,60.05a60,60,0,0,1-84.66,84.65A60,60,0,1,0,487,60.05Z"/></g><g id="_Csoport_7" data-name="&lt;Csoport&gt;"><rect id="_Téglalap_4" data-name="&lt;Téglalap&gt;" class="cls-6" x="184.2" y="101.55" width="263.74" height="191.02" rx="17.27" ry="17.27"/><path id="_Görbe_11" data-name="&lt;Görbe&gt;" class="cls-8" d="M184.2,267.07v6.76a18.75,18.75,0,0,0,18.74,18.75H429.2a18.75,18.75,0,0,0,18.74-18.75v-6.76Z"/><g id="_Csoport_8" data-name="&lt;Csoport&gt;"><g id="_Csoport_9" data-name="&lt;Csoport&gt;"><rect id="_Görbe_12" data-name="&lt;Görbe&gt;" class="cls-9" x="197.22" y="114.58" width="237.69" height="139.47"/></g><g id="_Csoport_10" data-name="&lt;Csoport&gt;"><rect id="_Görbe_13" data-name="&lt;Görbe&gt;" class="cls-3" x="197.22" y="114.58" width="237.69" height="139.47"/></g></g><circle id="_Görbe_14" data-name="&lt;Görbe&gt;" class="cls-10" cx="316.07" cy="279.82" r="5.43"/><g id="_Csoport_11" data-name="&lt;Csoport&gt;"><rect id="_Téglalap_5" data-name="&lt;Téglalap&gt;" class="cls-11" x="226.83" y="81.16" width="89.24" height="145.44"/><rect id="_Téglalap_6" data-name="&lt;Téglalap&gt;" class="cls-11" x="316.07" y="81.16" width="89.24" height="145.44"/></g><g id="_Csoport_12" data-name="&lt;Csoport&gt;"><rect id="_Téglalap_7" data-name="&lt;Téglalap&gt;" class="cls-1" x="236.59" y="74.46" width="79.48" height="144.17"/><rect id="_Téglalap_8" data-name="&lt;Téglalap&gt;" class="cls-1" x="316.07" y="74.46" width="79.48" height="144.17"/><rect id="_Téglalap_9" data-name="&lt;Téglalap&gt;" class="cls-12" x="249.64" y="88.74" width="30.07" height="41.62"/><line id="_Görbe_15" data-name="&lt;Görbe&gt;" class="cls-3" x1="249.64" y1="146.55" x2="302.44" y2="146.55"/><line id="_Görbe_16" data-name="&lt;Görbe&gt;" class="cls-3" x1="249.64" y1="160.75" x2="302.44" y2="160.75"/><line id="_Görbe_17" data-name="&lt;Görbe&gt;" class="cls-3" x1="249.64" y1="174.95" x2="302.44" y2="174.95"/><line id="_Görbe_18" data-name="&lt;Görbe&gt;" class="cls-3" x1="249.64" y1="189.15" x2="302.44" y2="189.15"/></g><polygon id="_Görbe_19" data-name="&lt;Görbe&gt;" class="cls-10" points="383.67 217.01 363.22 76.09 362.98 76.09 362.98 167.8 317.57 217.01 383.67 217.01"/><polygon id="_Görbe_20" data-name="&lt;Görbe&gt;" class="cls-1" points="362.98 167.8 316.07 218.63 316.07 74.46 362.98 23.63 362.98 167.8"/><line id="_Görbe_21" data-name="&lt;Görbe&gt;" class="cls-3" x1="216.22" y1="226.59" x2="415.92" y2="226.59"/><path id="_Összetett_görbe_" data-name="&lt;Összetett görbe&gt;" class="cls-13" d="M272.2,77.45V68h-5a28.34,28.34,0,0,0-4.91-11.68L266,52.61l-6.71-6.71-3.7,3.69A28.17,28.17,0,0,0,244,44.84V39.46h-9.5v5.38A28.18,28.18,0,0,0,223,49.55l-3.84-3.85-6.72,6.72,3.79,3.79a28.33,28.33,0,0,0-4.91,11.47H206v9.5h5.17a28.08,28.08,0,0,0,4.67,11.74l-3.6,3.6L219,99.23l3.49-3.49a28.17,28.17,0,0,0,11.77,5v4.89h9.49v-4.79A28.1,28.1,0,0,0,255.64,96l3.42,3.42,6.71-6.72-3.4-3.4a28.42,28.42,0,0,0,4.89-11.86Zm-14.06-6.51H245.28a6.32,6.32,0,0,0-4.14-4.14V53.93A19,19,0,0,1,258.14,70.94Zm-20.8-17V66.8a6.32,6.32,0,0,0-4.14,4.14H220.33A19,19,0,0,1,237.34,53.93Zm-17,20.81H233.2a6.36,6.36,0,0,0,4.14,4.14V91.74A19,19,0,0,1,220.33,74.74Zm20.81,17V78.88a6.36,6.36,0,0,0,4.14-4.14h12.86A19,19,0,0,1,241.14,91.74Z"/><path id="_Összetett_görbe_2" data-name="&lt;Összetett görbe&gt;" class="cls-13" d="M318.39,43.39V35.53H313.1a16.41,16.41,0,0,0-1.79-4.46l3.7-3.7-5.56-5.56-3.64,3.65a15.87,15.87,0,0,0-4.52-1.9V18.43h-7.86v5.13a15.87,15.87,0,0,0-4.52,1.9l-3.64-3.65-5.56,5.56,3.7,3.7a16.07,16.07,0,0,0-1.78,4.46h-5.3v7.86h5.41a16.24,16.24,0,0,0,1.85,4.29l-3.88,3.87,5.56,5.56,3.93-3.93a16,16,0,0,0,4.23,1.73v5.58h7.86V54.91a15.89,15.89,0,0,0,4.23-1.73l3.93,3.93L315,51.55l-3.88-3.87A15.91,15.91,0,0,0,313,43.39Zm-21,.92a5.08,5.08,0,1,1,5.08-5.08A5.07,5.07,0,0,1,297.36,44.31Z"/><path id="_Téglalap_10" data-name="&lt;Téglalap&gt;" class="cls-8" d="M273.79,322.37h84.55a8.26,8.26,0,0,1,8.26,8.26V333a0,0,0,0,1,0,0H265.53a0,0,0,0,1,0,0v-2.41A8.26,8.26,0,0,1,273.79,322.37Z"/><rect id="_Téglalap_11" data-name="&lt;Téglalap&gt;" class="cls-8" x="292.61" y="292.58" width="46.91" height="29.8"/><rect id="_Téglalap_12" data-name="&lt;Téglalap&gt;" class="cls-5" x="292.61" y="292.58" width="46.91" height="11.35"/><line id="_Görbe_22" data-name="&lt;Görbe&gt;" class="cls-3" x1="226.83" y1="241.52" x2="258.14" y2="241.52"/><line id="_Görbe_23" data-name="&lt;Görbe&gt;" class="cls-3" x1="389.65" y1="241.52" x2="405.31" y2="241.52"/><line id="_Görbe_24" data-name="&lt;Görbe&gt;" class="cls-3" x1="302.73" y1="241.52" x2="360.69" y2="241.52"/></g><g id="_Csoport_13" data-name="&lt;Csoport&gt;"><line id="_Görbe_25" data-name="&lt;Görbe&gt;" class="cls-14" x1="167.74" y1="197.07" x2="151.82" y2="197.07"/><line id="_Görbe_26" data-name="&lt;Görbe&gt;" class="cls-14" x1="165.41" y1="177.38" x2="154.15" y2="166.12"/><line id="_Görbe_27" data-name="&lt;Görbe&gt;" class="cls-14" x1="154.15" y1="228.01" x2="165.41" y2="216.75"/></g><g id="_Csoport_14" data-name="&lt;Csoport&gt;"><line id="_Görbe_28" data-name="&lt;Görbe&gt;" class="cls-14" x1="498.39" y1="49.07" x2="509.64" y2="37.81"/><line id="_Görbe_29" data-name="&lt;Görbe&gt;" class="cls-14" x1="513.96" y1="61.34" x2="529.87" y2="61.34"/><line id="_Görbe_30" data-name="&lt;Görbe&gt;" class="cls-14" x1="486.12" y1="17.58" x2="486.12" y2="33.5"/></g><path id="_Görbe_31" data-name="&lt;Görbe&gt;" class="cls-3" d="M474.8,107.2a9.18,9.18,0,0,1,6.78,7.38"/><path id="_Görbe_32" data-name="&lt;Görbe&gt;" class="cls-3" d="M450.38,88.21s3.53-6,1.36-10"/><g id="_Csoport_15" data-name="&lt;Csoport&gt;"><path id="_Téglalap_13" data-name="&lt;Téglalap&gt;" class="cls-1" d="M471.21,317.85h26a7.08,7.08,0,0,1,7.08,7.08V333a0,0,0,0,1,0,0h-40.7a0,0,0,0,1,0,0v-7.53A7.67,7.67,0,0,1,471.21,317.85Z"/><rect id="_Téglalap_14" data-name="&lt;Téglalap&gt;" class="cls-6" x="473.94" y="317.85" width="19.9" height="7.6"/><rect id="_Téglalap_15" data-name="&lt;Téglalap&gt;" class="cls-5" x="480.85" y="314.05" width="6.08" height="3.8"/></g><g id="_Csoport_16" data-name="&lt;Csoport&gt;"><line class="cls-3" x1="216.22" y1="134.07" x2="212.22" y2="134.07"/><path class="cls-15" d="M204.27,134.07H120.71A59.33,59.33,0,0,0,61.37,193.4v10"/><line class="cls-3" x1="61.37" y1="207.38" x2="61.37" y2="211.38"/></g><g id="_Csoport_17" data-name="&lt;Csoport&gt;"><line id="_Görbe_33" data-name="&lt;Görbe&gt;" class="cls-3" x1="1.5" y1="279.55" x2="145.31" y2="279.55"/><g id="_Csoport_18" data-name="&lt;Csoport&gt;"><path id="_Görbe_34" data-name="&lt;Görbe&gt;" class="cls-16" d="M113.65,238.62v-5.43H21a11.94,11.94,0,0,0,0,23.88h92.61v-5.42H25.92v-13Z"/><rect id="_Téglalap_16" data-name="&lt;Téglalap&gt;" class="cls-3" x="25.92" y="238.62" width="80.86" height="13.02"/><line id="_Görbe_35" data-name="&lt;Görbe&gt;" class="cls-3" x1="106.78" y1="245.13" x2="25.92" y2="245.13"/><rect id="_Téglalap_17" data-name="&lt;Téglalap&gt;" class="cls-5" x="25.92" y="238.62" width="6.78" height="13.02"/></g><polygon id="_Görbe_36" data-name="&lt;Görbe&gt;" class="cls-1" points="113.65 273.01 21.04 273.01 25.92 268.31 21.04 263.61 113.65 263.61 113.65 273.01"/><line id="_Görbe_37" data-name="&lt;Görbe&gt;" class="cls-3" x1="55.41" y1="268.31" x2="80.37" y2="268.31"/><path id="_Görbe_38" data-name="&lt;Görbe&gt;" class="cls-17" d="M120.5,257.07H21v6.54h92.61V273H21v6.54H120.5a11.24,11.24,0,0,0,11.24-11.24h0A11.24,11.24,0,0,0,120.5,257.07Z"/><polygon id="_Görbe_39" data-name="&lt;Görbe&gt;" class="cls-12" points="55.41 283.12 48.89 278.69 42.38 283.12 42.38 263.61 55.41 263.61 55.41 283.12"/></g><line id="_Görbe_40" data-name="&lt;Görbe&gt;" class="cls-3" x1="395.54" y1="292.58" x2="395.54" y2="333.05"/><line id="_Görbe_41" data-name="&lt;Görbe&gt;" class="cls-3" x1="408.87" y1="292.58" x2="408.87" y2="333.05"/><path id="_Görbe_42" data-name="&lt;Görbe&gt;" class="cls-18" d="M416.62,171.75H532.45a27.39,27.39,0,0,1,27.39,27.39v12.24"/><g id="_Csoport_19" data-name="&lt;Csoport&gt;"><path id="_Görbe_43" data-name="&lt;Görbe&gt;" class="cls-6" d="M138,80.86l-19.4,6.61a60.87,60.87,0,0,1-39.54,0L59.69,80.86l9.38-38h59.57Z"/><polygon id="_Görbe_44" data-name="&lt;Görbe&gt;" class="cls-5" points="137.43 47.89 98.85 35.67 60.27 47.89 43.14 47.89 43.14 53.32 98.85 70.97 154.57 53.32 154.57 47.89 137.43 47.89"/><polygon id="_Görbe_45" data-name="&lt;Görbe&gt;" class="cls-6" points="98.85 30.25 43.14 47.89 98.85 65.54 154.57 47.89 98.85 30.25"/><path id="_Görbe_46" data-name="&lt;Görbe&gt;" class="cls-19" d="M61.06,75.29l18,6.15a60.87,60.87,0,0,0,39.54,0l18-6.15-1.44-5.85-16.58,5.65a60.87,60.87,0,0,1-39.54,0L62.51,69.44Z"/><polyline id="_Görbe_47" data-name="&lt;Görbe&gt;" class="cls-3" points="98.85 47.89 124.99 57.26 124.99 95.32"/><circle id="_Görbe_48" data-name="&lt;Görbe&gt;" class="cls-5" cx="124.99" cy="92.31" r="3.66"/><path id="_Görbe_49" data-name="&lt;Görbe&gt;" class="cls-5" d="M125,92.31a19.59,19.59,0,0,0-5.43,14h10.86A19.59,19.59,0,0,0,125,92.31Z"/></g><g id="_Csoport_20" data-name="&lt;Csoport&gt;"><text class="cls-20" transform="translate(28.76 43.32)"><tspan class="cls-21">A</tspan><tspan x="15.14" y="0">+</tspan></text></g><g id="_Csoport_21" data-name="&lt;Csoport&gt;"><rect id="_Téglalap_18" data-name="&lt;Téglalap&gt;" class="cls-1" x="556.65" y="51.49" width="69.1" height="89"/><rect id="_Téglalap_19" data-name="&lt;Téglalap&gt;" class="cls-4" x="550.04" y="58.55" width="67.98" height="85.74"/><rect id="_Téglalap_20" data-name="&lt;Téglalap&gt;" class="cls-12" x="579.18" y="81.16" width="38.85" height="13.03"/></g><g id="_Csoport_22" data-name="&lt;Csoport&gt;"><line class="cls-3" x1="521.92" y1="123.67" x2="525.92" y2="123.67"/><line class="cls-22" x1="532.95" y1="123.67" x2="571.66" y2="123.67"/><line class="cls-3" x1="575.18" y1="123.67" x2="579.18" y2="123.67"/></g><g id="_Csoport_23" data-name="&lt;Csoport&gt;"><line class="cls-3" x1="83.66" y1="13.5" x2="87.66" y2="13.5"/><line class="cls-23" x1="95.59" y1="13.5" x2="250.19" y2="13.5"/><polyline class="cls-3" points="254.15 13.51 258.15 13.51 258.15 17.5"/><line class="cls-24" x1="258.15" y1="21.72" x2="258.15" y2="28.04"/><line class="cls-3" x1="258.15" y1="30.15" x2="258.15" y2="34.15"/></g><g id="_Csoport_24" data-name="&lt;Csoport&gt;"><polygon id="_Görbe_50" data-name="&lt;Görbe&gt;" class="cls-1" points="408.42 13.51 458.46 13.51 404.74 25.7 408.42 13.51"/><polygon id="_Görbe_51" data-name="&lt;Görbe&gt;" class="cls-1" points="408.42 25.7 412.31 29.59 458.46 13.51 408.42 25.7"/></g><g id="_Csoport_25" data-name="&lt;Csoport&gt;"><polygon id="_Görbe_52" data-name="&lt;Görbe&gt;" class="cls-1" points="592.64 1.5 542.6 1.5 596.33 13.7 592.64 1.5"/><polygon id="_Görbe_53" data-name="&lt;Görbe&gt;" class="cls-1" points="592.64 13.7 588.76 17.58 542.6 1.5 592.64 13.7"/></g></svg>