<svg id="Réteg_1" data-name="Réteg 1" xmlns="http://www.w3.org/2000/svg" xmlns:xlink="http://www.w3.org/1999/xlink" viewBox="0 0 1920 1377"><defs><style>.cls-1,.cls-2,.cls-3{opacity:0.39;}.cls-1{fill:url(#Névtelen_színátmenet_38);}.cls-2{fill:url(#Névtelen_színátmenet_38-2);}.cls-3{fill:url(#Névtelen_színátmenet_38-3);}</style><linearGradient id="Névtelen_színátmenet_38" x1="1439.37" y1="-281.27" x2="661.86" y2="1065.42" gradientUnits="userSpaceOnUse"><stop offset="0.2" stop-color="#00d49d"/><stop offset="0.56" stop-color="aqua"/><stop offset="0.81" stop-color="#21bce8"/></linearGradient><linearGradient id="Névtelen_színátmenet_38-2" x1="1470.15" y1="-258.76" x2="674.14" y2="1119.97" xlink:href="#Névtelen_színátmenet_38"/><linearGradient id="Névtelen_színátmenet_38-3" x1="1489.7" y1="-249.9" x2="681.78" y2="1149.47" xlink:href="#Névtelen_színátmenet_38"/></defs><title>video-bg</title><path class="cls-1" d="M-8-2.36l3,570S179.9,978.45,502,774C669,668,749,595,811,577c99.27-28.82,204-24.1,326,133.15s155.85,221.54,472,160.57c45.19-8.71,164-3.42,90,138.45S1919,1116,1919,1116L1930,2Z"/><path class="cls-2" d="M-11,0l3,650.17S320.35,1106.33,586,794c79-92.88,168-145.47,219-150.44,27.81-2.72,207-10.19,329,169.17s155.85,252.7,472,183.16c45.19-9.94,164-3.9,90,157.92s220,121.84,220,121.84L1927,5Z"/><path class="cls-3" d="M-12-3.35l3,698.93S389.35,1157.75,655,822c79-99.85,127-118.65,178-124,27.81-2.92,178-20.5,300,172.31S1288.85,1142,1605,1067.2c45.19-10.68,164-4.19,90,169.77s220,131,220,131L1926,2Z"/></svg>