<svg xmlns="http://www.w3.org/2000/svg" viewBox="0 0 360 180"><defs><style>.cls-1{fill:#43556b;}.cls-2{fill:#dd0932;}.cls-3{fill:#c31532;}.cls-4{fill:#fff;}</style></defs><title>angular-card</title><g id="angular-card"><rect class="cls-1" width="360" height="180"/><polygon class="cls-2" points="180 36 180 36 180 36 147.41 47.62 152.38 90.7 180 106 180 106 180 106 207.62 90.7 212.59 47.62 180 36"/><polygon class="cls-3" points="180 36 180 43.77 180 43.73 180 79.19 180 79.19 180 106 180 106 207.62 90.7 212.59 47.62 180 36"/><path class="cls-4" d="M180,43.73,159.63,89.41h7.59l4.1-10.22h17.29l4.1,10.22h7.59L180,43.73ZM186,72.89h-11.9L180,58.57Z"/></g></svg>