<svg xmlns="http://www.w3.org/2000/svg" xmlns:xlink="http://www.w3.org/1999/xlink" viewBox="0 0 1920 1080"><defs><style>.cls-1,.cls-20,.cls-21{fill:none;}.cls-2{isolation:isolate;}.cls-3{fill:#333;}.cls-4{fill:#662d91;}.cls-5,.cls-7{fill:#fbb03b;}.cls-5{opacity:0.52;}.cls-6{fill:#f7931e;}.cls-8{fill:#00eee8;}.cls-9{fill:#2c0328;}.cls-10{fill:#365f88;}.cls-11{fill:#290024;}.cls-12,.cls-14,.cls-19{fill:#fff;}.cls-12{mix-blend-mode:overlay;}.cls-13{clip-path:url(#clip-path);}.cls-15{fill:#43193f;}.cls-16,.cls-18{fill:aqua;}.cls-17{mix-blend-mode:color;}.cls-18{mix-blend-mode:color-burn;}.cls-19,.cls-20{stroke:#2c0328;stroke-width:5px;}.cls-19,.cls-20,.cls-21{stroke-linecap:round;stroke-miterlimit:10;}.cls-21{stroke:#290024;stroke-width:3px;}</style><clipPath id="clip-path"><ellipse class="cls-1" cx="979.99" cy="625.38" rx="202.7" ry="19.96"/></clipPath></defs><title>error page</title><g class="cls-2"><g id="Réteg_1" data-name="Réteg 1"><rect class="cls-3" x="1" y="-3" width="1920" height="1080"/><path class="cls-4" d="M1,838s687-275,1920-13v256H1Z"/><rect class="cls-5" x="588" y="248" width="40.28" height="777"/><path class="cls-6" d="M629,1025c0,5.76-2.31,12.83-16.88,12.83S588,1029.76,588,1024s9.55-7,24.12-7S629,1019.24,629,1025Z"/><rect class="cls-5" x="1731.53" y="63" width="34" height="770.41"/><path class="cls-6" d="M1765.53,833.4c0,5.76-7.61,10.43-17,10.43s-17-4.67-17-10.43,7.61-10.43,17-10.43S1765.53,827.64,1765.53,833.4Z"/><path class="cls-6" d="M1259.76,827.4c0,5.76-6.11,10.43-13.65,10.43s-19-3.07-19-8.83,11.46-12,19-12S1259.76,821.64,1259.76,827.4Z"/><ellipse class="cls-6" cx="1491.8" cy="854.3" rx="21.58" ry="8.01"/><rect class="cls-5" x="1470.22" y="262.31" width="43.16" height="591.99"/><ellipse class="cls-6" cx="1616.01" cy="1021.63" rx="17.5" ry="8.95"/><polygon class="cls-5" points="1634 1023.08 1599 1023.08 1599 140 1634 141 1634 1023.08"/><rect class="cls-5" x="121.43" y="6" width="43.16" height="976.02"/><path class="cls-6" d="M164.59,982c0,7.3-9.67,7-21.59,7s-21.57.32-21.57-7,9.67-13.21,21.58-13.21S164.59,974.72,164.59,982Z"/><path class="cls-7" d="M380,820.43c0,2.58-13.45,4.17-20.46,4.17S346,823,346,820.43s6.52-5.17,13.54-5.17S380,817.85,380,820.43Z"/><rect class="cls-5" x="346.4" y="256.6" width="33.35" height="563.85"/><rect class="cls-5" x="1226.96" y="41" width="32.58" height="788.4"/><path class="cls-8" d="M1252.77,915.46c0,33.28-65.4,49.6-217.53,49.6s-333.36-16.32-333.36-49.6S825.2,855.2,977.33,855.2,1252.77,882.18,1252.77,915.46Z"/><path class="cls-9" d="M732.9,937.37c44.81,20,196.31,28.53,305,28.5,109.64,0,161-4.85,196.61-25.14-44.81-20-145.44-37.14-254.14-37.14S777.71,917.37,732.9,937.37Z"/><path class="cls-6" d="M1222.2,529.8h0c-6.87,0-12.5-6.32-12.5-14V417.94c0-7.72,5.63-14,12.5-14h0c6.87,0,12.5,6.32,12.5,14v97.82C1234.7,523.48,1229.07,529.8,1222.2,529.8Z"/><path class="cls-7" d="M389.37,635.66h0c-6.88,0-12.5-6.32-12.5-14V523.8c0-7.72,5.62-14,12.5-14h0c6.87,0,12.5,6.32,12.5,14v97.82C401.87,629.34,396.24,635.66,389.37,635.66Z"/><path class="cls-7" d="M728.62,563.35h0c-6.87,0-12.5-6.31-12.5-14V451.5c0-7.72,5.63-14,12.5-14h0c6.88,0,12.5,6.32,12.5,14v97.82C741.12,557,735.5,563.35,728.62,563.35Z"/><path class="cls-6" d="M487.13,428.28h0a7,7,0,0,1-7-7V372.35a7,7,0,0,1,7-7h0a7,7,0,0,1,7,7v48.92A7,7,0,0,1,487.13,428.28Z"/><path class="cls-6" d="M1545.1,481h0a3.52,3.52,0,0,1-3.51-3.51V453a3.52,3.52,0,0,1,3.51-3.51h0a3.52,3.52,0,0,1,3.51,3.51V477.5A3.52,3.52,0,0,1,1545.1,481Z"/><path class="cls-7" d="M80.24,622.55h0A3.52,3.52,0,0,1,76.73,619V594.58a3.52,3.52,0,0,1,3.51-3.51h0a3.52,3.52,0,0,1,3.51,3.51V619A3.52,3.52,0,0,1,80.24,622.55Z"/><path class="cls-7" d="M1818.31,476.29h0a11.1,11.1,0,0,1-11.07-11.07V388.07A11.11,11.11,0,0,1,1818.31,377h0a11.11,11.11,0,0,1,11.07,11.07v77.15A11.1,11.1,0,0,1,1818.31,476.29Z"/><path class="cls-7" d="M222,464.55h0c-6.87,0-12.5-6.31-12.5-14V352.69c0-7.72,5.63-14,12.5-14h0c6.88,0,12.5,6.31,12.5,14v97.83C234.53,458.24,228.91,464.55,222,464.55Z"/><path class="cls-7" d="M1303.5,673h0c-4.13,0-7.5-5-7.5-11.19v-78c0-6.15,3.37-11.18,7.5-11.18h0c4.12,0,7.5,5,7.5,11.18v78C1311,668,1307.62,673,1303.5,673Z"/><path class="cls-6" d="M1638,718h0a11.13,11.13,0,0,1-11-11.19v-78a11.12,11.12,0,0,1,11-11.18h0a11.12,11.12,0,0,1,11,11.18v78A11.13,11.13,0,0,1,1638,718Z"/><path class="cls-10" d="M1194.42,782.46a34.11,34.11,0,1,1,34.1-34.1A34.14,34.14,0,0,1,1194.42,782.46Z"/><path class="cls-11" d="M1194.42,716.54a31.82,31.82,0,1,1-31.82,31.82,31.82,31.82,0,0,1,31.82-31.82m0-4.57a36.39,36.39,0,1,0,36.39,36.39A36.43,36.43,0,0,0,1194.42,712Z"/><path class="cls-10" d="M768.09,787a34.1,34.1,0,1,1,34.1-34.1A34.14,34.14,0,0,1,768.09,787Z"/><path class="cls-11" d="M768.09,721.11a31.82,31.82,0,1,1-31.82,31.82,31.82,31.82,0,0,1,31.82-31.82m0-4.57a36.39,36.39,0,1,0,36.38,36.39,36.43,36.43,0,0,0-36.38-36.39Z"/><path class="cls-10" d="M883,907.89c-59.15,0-107.27-43-107.27-95.91V622.69A2.28,2.28,0,0,1,778,620.4h405.41a2.28,2.28,0,0,1,2.29,2.29V812c0,52.88-48.12,95.91-107.27,95.91Z"/><path class="cls-11" d="M1183.45,622.69V812c0,51.71-47,93.63-105,93.63H883c-58,0-105-41.92-105-93.63V622.69h405.41m0-4.58H778a4.58,4.58,0,0,0-4.57,4.58V812c0,26.33,11.46,51,32.28,69.62C826.42,900,853.86,910.18,883,910.18h195.44c29.17,0,56.61-10.15,77.28-28.58S1188,838.31,1188,812V622.69a4.58,4.58,0,0,0-4.58-4.58Z"/><polygon class="cls-12" points="992.18 802.03 975.41 802.8 974.65 646.58 992.18 646.58 992.18 802.03"/><circle class="cls-4" cx="901.42" cy="759.01" r="40.65" transform="translate(-56.19 1445.76) rotate(-75.74)"/><circle class="cls-4" cx="1061.69" cy="759.77" r="40.65" transform="translate(-226.28 973.26) rotate(-45)"/><ellipse class="cls-9" cx="979.99" cy="625.38" rx="202.7" ry="19.96"/><path class="cls-9" d="M980,605.43c112,0,202.7,8.93,202.7,20s-90.75,20-202.7,20-202.71-8.93-202.71-20,90.76-20,202.71-20m0-4.48c-54.29,0-105.35,2.08-143.78,5.87-18.8,1.85-33.61,4-44,6.43-13.78,3.21-19.4,6.72-19.4,12.13s5.62,8.93,19.4,12.13c10.4,2.42,25.21,4.59,44,6.44,38.43,3.78,89.49,5.87,143.78,5.87s105.34-2.09,143.77-5.87c18.81-1.85,33.62-4,44-6.44,13.77-3.2,19.39-6.72,19.39-12.13s-5.62-8.92-19.39-12.13c-10.4-2.42-25.21-4.58-44-6.43C1085.33,603,1034.27,601,980,601Z"/><g class="cls-13"><ellipse class="cls-14" cx="979.99" cy="641.82" rx="202.7" ry="19.96"/></g><rect class="cls-10" x="954.08" y="907.19" width="69.35" height="54.11" rx="14.29" ry="14.29"/><path class="cls-11" d="M1009.14,909.48a12,12,0,0,1,12,12V947a12,12,0,0,1-12,12H968.36a12,12,0,0,1-12-12V921.48a12,12,0,0,1,12-12h40.78m0-4.57H968.36a16.58,16.58,0,0,0-16.57,16.57V947a16.59,16.59,0,0,0,16.57,16.57h40.78A16.59,16.59,0,0,0,1025.71,947V921.48a16.58,16.58,0,0,0-16.57-16.57Z"/><path class="cls-12" d="M1131.34,859.35c10.6,13.91-5.13,29.63-19,19C1101.71,864.48,1117.43,848.75,1131.34,859.35Z"/><circle class="cls-9" cx="893.67" cy="748.49" r="38.67"/><circle class="cls-9" cx="1066.88" cy="749.25" r="38.67"/><circle class="cls-14" cx="896.6" cy="753.38" r="38.67"/><circle class="cls-15" cx="894.16" cy="750.93" r="24.47"/><path class="cls-16" d="M896.6,726.46c-.41,0-.81,0-1.22.06a24.46,24.46,0,1,1-25.63,25.64c0,.4-.07.81-.07,1.22a26.93,26.93,0,1,0,26.92-26.92Z"/><circle class="cls-14" cx="1063.95" cy="754.14" r="38.67"/><circle class="cls-15" cx="1066.39" cy="751.69" r="24.47"/><path class="cls-16" d="M1064,727.22c.41,0,.81,0,1.22.06a24.46,24.46,0,1,0,25.63,25.64c0,.41.07.81.07,1.22A26.93,26.93,0,1,1,1064,727.22Z"/><path class="cls-14" d="M893.28,757.09a9.25,9.25,0,1,1-8-8A9.26,9.26,0,0,1,893.28,757.09Z"/><path class="cls-14" d="M1084.89,740a9.25,9.25,0,1,1-9.25-9.25A9.25,9.25,0,0,1,1084.89,740Z"/><g class="cls-17"><path class="cls-18" d="M1160.5,869.15A77.82,77.82,0,0,0,1182,815.34l.66-183.24-24.38,6.09Z"/><path class="cls-18" d="M797.1,637.43l-19.82-6.09,1.12,184a77.75,77.75,0,0,0,19.41,51.48Z"/></g><rect class="cls-19" x="858.06" y="819.56" width="243.85" height="54.87" rx="9.14" ry="9.14"/><line class="cls-20" x1="860.35" y1="847.38" x2="1098.87" y2="846.99"/><line class="cls-20" x1="891.21" y1="819.94" x2="891.21" y2="874.05"/><line class="cls-20" x1="927.02" y1="820.7" x2="926.26" y2="874.05"/><line class="cls-20" x1="959.79" y1="819.94" x2="959.79" y2="873.29"/><line class="cls-20" x1="991.04" y1="820.7" x2="991.04" y2="873.29"/><line class="cls-20" x1="1024.57" y1="819.94" x2="1024.57" y2="874.05"/><line class="cls-20" x1="1061.14" y1="819.94" x2="1061.91" y2="874.05"/><rect class="cls-8" x="959.41" y="911.01" width="16.76" height="41.91" rx="8.38" ry="8.38"/><path class="cls-14" d="M1533.14,772.06a52.22,52.22,0,0,0-38.48-47.47,51.45,51.45,0,1,0-90-48.89,48,48,0,0,0-73.15,61.56h-126a9.17,9.17,0,0,0-9.14,9.14v6.1a9.17,9.17,0,0,0,9.14,9.15h94.14a29,29,0,0,0,42.52,36.15,46.86,46.86,0,0,0,89.94-4.47A52.21,52.21,0,0,0,1481,827.18l.81,0a40.73,40.73,0,0,0,32.72,16c22.1,0,40-16.88,40-37.72C1554.57,791,1545.88,778.37,1533.14,772.06Z"/><path class="cls-14" d="M759,741.83H633a48,48,0,0,0-73.16-61.56,51.44,51.44,0,1,0-90,48.89,52.18,52.18,0,0,0-34.79,69.9,28.38,28.38,0,0,0-9.88,21.26c0,16.42,14.67,29.72,32.77,29.72,13.72,0,25.47-7.66,30.35-18.52a52.21,52.21,0,0,0,44.05-33.62,46.86,46.86,0,0,0,90,4.48,29,29,0,0,0,42.52-36.16H759a9.18,9.18,0,0,0,9.15-9.15V751A9.18,9.18,0,0,0,759,741.83Z"/><ellipse class="cls-14" cx="1375" cy="580.34" rx="29" ry="27.66"/><path class="cls-14" d="M1963,100.5c0-26.29-14.69-49.29-36.65-62A27.21,27.21,0,0,0,1938,16.34c0-15.28-13-27.67-29-27.67a29.69,29.69,0,0,0-19,6.78V-28a12,12,0,0,0-12-12H85A12,12,0,0,0,73-28v11.07A135.07,135.07,0,0,0,47.62-1.15C45.37-14.29,33.42-24.33,19-24.33c-16,0-29,12.39-29,27.67A26.61,26.61,0,0,0-5.72,17.8C-20.46,19.11-32,30.93-32,45.34-32,60.61-19,73-3,73c1,0,1.93,0,2.87-.14A135.14,135.14,0,0,0-4,105a144.44,144.44,0,0,0,1.58,21.36c-12.93,2.79-22.58,13.8-22.58,27A27.15,27.15,0,0,0-14,175a51.22,51.22,0,0,0-13,34c0,29.82,26.19,54,58.5,54,23,0,42.94-12.29,52.49-30.15A130.75,130.75,0,0,0,127,240a138.82,138.82,0,0,0,44.59-7.39,95,95,0,0,0,134.52,75.52,124.49,124.49,0,0,0,186.07,16.69,82.85,82.85,0,0,0,63.39,13.7C567.27,395.87,617.64,439,678,439a124,124,0,0,0,84.82-33.45,75.83,75.83,0,0,0,44.95,20.11,118.73,118.73,0,0,0,20.35,48.78A26.84,26.84,0,0,0,819,494.5c0,15.19,12.9,27.5,28.81,27.5a29.22,29.22,0,0,0,23-10.95A113.54,113.54,0,0,0,893,519.38V631h193V499.52c27.58-10.87,47-36.78,47-67a70,70,0,0,0-.68-9.55,116.5,116.5,0,0,0,152.94-7.49A97.77,97.77,0,0,0,1369,463c53.55,0,97.06-43.39,98-97.26,20.27-11.58,34.41-31.91,36.68-55.52a118.9,118.9,0,0,0,20.55,1.78c44.51,0,83-24.5,101.51-60.14A111.53,111.53,0,0,0,1652.2,255a117.83,117.83,0,0,0,26.59-3.05c16.36,32.9,51.5,55.66,92.21,55.66a105.39,105.39,0,0,0,50-12.5A55.93,55.93,0,0,0,1864.14,315c30.4,0,55-23.51,55-52.5,0-26.12-20-47.78-46.19-51.82,0-.12,0-.25,0-.38a99,99,0,0,0-8.61-40.68A75.74,75.74,0,0,0,1887,173C1929,173,1963,140.54,1963,100.5Z"/><line class="cls-21" x1="926" y1="462" x2="926" y2="611"/><line class="cls-21" x1="951.5" y1="497.5" x2="951.5" y2="646.5"/><line class="cls-21" x1="982.5" y1="462.5" x2="982.5" y2="611.5"/><line class="cls-21" x1="1003.5" y1="494.5" x2="1003.5" y2="643.5"/><line class="cls-21" x1="1034.5" y1="472.5" x2="1034.5" y2="621.5"/></g></g></svg>