<svg xmlns="http://www.w3.org/2000/svg" xmlns:xlink="http://www.w3.org/1999/xlink" viewBox="0 0 1920 1080"><defs><style>.cls-1{isolation:isolate;}.cls-2{fill:url(#linear-gradient);}.cls-3{fill:url(#linear-gradient-2);}.cls-4{fill:url(#linear-gradient-3);}.cls-5{fill:url(#linear-gradient-4);}.cls-6{fill:url(#linear-gradient-5);}.cls-7{fill:url(#linear-gradient-6);}.cls-8{fill:url(#linear-gradient-7);}.cls-9{fill:url(#linear-gradient-8);}.cls-10{mix-blend-mode:multiply;fill:url(#linear-gradient-9);}.cls-11{fill:url(#linear-gradient-10);}.cls-12,.cls-13{fill:none;stroke:#fff;stroke-miterlimit:10;}.cls-12{stroke-width:2px;}.cls-13{stroke-width:4px;}.cls-14{fill:url(#linear-gradient-11);}.cls-15{fill:url(#linear-gradient-12);}.cls-16{fill:url(#linear-gradient-13);}.cls-17{fill:url(#linear-gradient-14);}.cls-18{fill:url(#linear-gradient-15);}.cls-19{fill:url(#linear-gradient-16);}.cls-20{fill:url(#linear-gradient-17);}.cls-21{fill:url(#linear-gradient-18);}.cls-22{fill:url(#linear-gradient-19);}.cls-23{fill:url(#linear-gradient-20);}.cls-24{fill:url(#linear-gradient-21);}.cls-25{fill:url(#linear-gradient-22);}.cls-26{fill:url(#linear-gradient-23);}.cls-27{fill:url(#linear-gradient-24);}.cls-28{fill:url(#linear-gradient-25);}.cls-29{fill:url(#linear-gradient-26);}.cls-30{fill:url(#linear-gradient-27);}.cls-31{fill:url(#linear-gradient-28);}.cls-32{fill:#fff;}.cls-33{fill:#f2f2f2;}</style><linearGradient id="linear-gradient" x1="1227.42" y1="101.48" x2="1300.74" y2="396.79" gradientUnits="userSpaceOnUse"><stop offset="0" stop-color="#80c793"/><stop offset="1" stop-color="#00adee"/></linearGradient><linearGradient id="linear-gradient-2" x1="977.92" y1="-85.37" x2="1006.29" y2="113.18" xlink:href="#linear-gradient"/><linearGradient id="linear-gradient-3" x1="792.43" y1="29.11" x2="813.39" y2="175.85" xlink:href="#linear-gradient"/><linearGradient id="linear-gradient-4" x1="134.04" y1="-95.53" x2="180.54" y2="229.96" xlink:href="#linear-gradient"/><linearGradient id="linear-gradient-5" x1="827.28" y1="537.88" x2="903.99" y2="1074.83" xlink:href="#linear-gradient"/><linearGradient id="linear-gradient-6" x1="-0.04" y1="558.07" x2="1919.87" y2="558.07" xlink:href="#linear-gradient"/><linearGradient id="linear-gradient-7" x1="403.55" y1="800.75" x2="1939.3" y2="1036.55" gradientUnits="userSpaceOnUse"><stop offset="0" stop-color="#ec3a94"/><stop offset="1" stop-color="#682c90"/></linearGradient><linearGradient id="linear-gradient-8" x1="441.51" y1="623.72" x2="1970.97" y2="858.56" xlink:href="#linear-gradient-7"/><linearGradient id="linear-gradient-9" x1="1477.11" y1="355.97" x2="1498.18" y2="-212.9" xlink:href="#linear-gradient-7"/><linearGradient id="linear-gradient-10" x1="159.47" y1="910.48" x2="183.62" y2="1180.9" xlink:href="#linear-gradient-7"/><linearGradient id="linear-gradient-11" x1="1442.71" y1="786.06" x2="1694.04" y2="1500.78" xlink:href="#linear-gradient"/><linearGradient id="linear-gradient-12" x1="1400.71" y1="786.06" x2="1652.04" y2="1500.78" xlink:href="#linear-gradient"/><linearGradient id="linear-gradient-13" x1="1358.71" y1="786.06" x2="1610.04" y2="1500.78" xlink:href="#linear-gradient"/><linearGradient id="linear-gradient-14" x1="1316.71" y1="786.06" x2="1568.04" y2="1500.78" xlink:href="#linear-gradient"/><linearGradient id="linear-gradient-15" x1="1274.71" y1="786.06" x2="1526.04" y2="1500.78" xlink:href="#linear-gradient"/><linearGradient id="linear-gradient-16" x1="1232.71" y1="786.06" x2="1484.04" y2="1500.78" xlink:href="#linear-gradient"/><linearGradient id="linear-gradient-17" x1="1190.71" y1="786.06" x2="1442.04" y2="1500.78" xlink:href="#linear-gradient"/><linearGradient id="linear-gradient-18" x1="1148.71" y1="786.06" x2="1400.04" y2="1500.78" xlink:href="#linear-gradient"/><linearGradient id="linear-gradient-19" x1="1106.71" y1="786.06" x2="1358.04" y2="1500.78" xlink:href="#linear-gradient"/><linearGradient id="linear-gradient-20" x1="1442.71" y1="810.17" x2="1694.04" y2="1524.89" xlink:href="#linear-gradient"/><linearGradient id="linear-gradient-21" x1="1400.71" y1="810.17" x2="1652.04" y2="1524.89" xlink:href="#linear-gradient"/><linearGradient id="linear-gradient-22" x1="1358.71" y1="810.17" x2="1610.04" y2="1524.89" xlink:href="#linear-gradient"/><linearGradient id="linear-gradient-23" x1="1316.71" y1="810.17" x2="1568.04" y2="1524.89" xlink:href="#linear-gradient"/><linearGradient id="linear-gradient-24" x1="1274.71" y1="810.17" x2="1526.04" y2="1524.89" xlink:href="#linear-gradient"/><linearGradient id="linear-gradient-25" x1="1232.71" y1="810.17" x2="1484.04" y2="1524.89" xlink:href="#linear-gradient"/><linearGradient id="linear-gradient-26" x1="1190.71" y1="810.17" x2="1442.04" y2="1524.89" xlink:href="#linear-gradient"/><linearGradient id="linear-gradient-27" x1="1148.71" y1="810.17" x2="1400.04" y2="1524.89" xlink:href="#linear-gradient"/><linearGradient id="linear-gradient-28" x1="1106.71" y1="810.17" x2="1358.04" y2="1524.89" xlink:href="#linear-gradient"/></defs><title>multi-reg-bg</title><g class="cls-1"><g id="Réteg_1" data-name="Réteg 1"><ellipse class="cls-2" cx="1243.33" cy="165.56" rx="25" ry="25.11"/><ellipse class="cls-3" cx="999.85" cy="68.14" rx="31.5" ry="31.79"/><ellipse class="cls-4" cx="808.63" cy="142.57" rx="23.28" ry="23.5"/><ellipse class="cls-5" cx="169.99" cy="156.13" rx="51.64" ry="52.12"/><ellipse class="cls-6" cx="886.59" cy="953.03" rx="85.59" ry="85.97"/><path class="cls-7" d="M1919.87,281.29c-233.71,50.39-557.93-35.45-1017.34-190.72C513.66-40.85,196.39,38.69,0,127.41v803c684.42,391.71,946-343.6,1407.46-42.2,173.94,113.59,353.25,175,512.45,206.88Z"/><path class="cls-8" d="M948.14,868.79C826,801,697.69,702.55,533.09,610.56,316.16,489.34,132.23,512.84,0,569.61V930.39C432.53,1178,696.17,975.35,948.14,868.79Z"/><path class="cls-9" d="M1920,608.16c-71.3,29.42-149.72,75.92-235.4,142.78-92.4,72.12-174,122.16-248.34,154.35,164.87,101.65,333.28,158,483.74,188Z"/><path class="cls-10" d="M1268.13,136.73q52.44,25.72,106.51,48.13c90.44,37.72,182.6,73.34,278.76,93.55,85.08,17.88,184.42,18,269.6.59,19.26-3.94-3-73.42-3-90.56V1H1040c3.54-.06,11.74,7.45,14.83,9.44q8.73,5.62,17.38,11.37c11.11,7.34,22.16,14.76,33.25,22.14C1157.55,78.62,1212.05,109.21,1268.13,136.73Z"/><ellipse class="cls-11" cx="166.84" cy="993.02" rx="40" ry="40.18"/><path class="cls-12" d="M1920,363.05c-233.74,42.84-558-30.14-1017.48-162.15C513.6,89.17,196.29,156.8-.17,232.22"/><path class="cls-12" d="M1920,330.9c-233.74,42.85-558-30.14-1017.48-162.14C513.6,57,196.29,124.65-.17,200.08"/><path class="cls-12" d="M1920,298.76c-233.74,42.84-558-30.14-1017.48-162.15C513.6,24.88,196.29,92.51-.17,167.93"/><path class="cls-13" d="M1920,464.66C1689.15,507,1456.67,448,1233.5,392.34c-110.91-27.66-221.12-58.27-331-89.83-223.74-64.28-460.8-77.61-689.29-30.89A1351,1351,0,0,0-.17,333.83"/><path class="cls-14" d="M1472.61,881.21c-6.11,8.06,3,17.18,11,11h0C1489.72,884.18,1480.64,875.06,1472.61,881.21Z"/><path class="cls-15" d="M1430.61,881.21c-6.11,8.06,3,17.18,11,11h0C1447.72,884.18,1438.64,875.06,1430.61,881.21Z"/><path class="cls-16" d="M1388.61,881.21c-6.11,8.06,3,17.18,11,11h0C1405.72,884.18,1396.64,875.06,1388.61,881.21Z"/><path class="cls-17" d="M1346.61,881.21c-6.11,8.06,3,17.18,11,11h0C1363.72,884.18,1354.64,875.06,1346.61,881.21Z"/><path class="cls-18" d="M1304.61,881.21c-6.11,8.06,3,17.18,11,11h0C1321.72,884.18,1312.64,875.06,1304.61,881.21Z"/><path class="cls-19" d="M1262.61,881.21c-6.11,8.06,3,17.18,11,11h0C1279.72,884.18,1270.64,875.06,1262.61,881.21Z"/><path class="cls-20" d="M1220.61,881.21c-6.11,8.06,3,17.18,11,11h0C1237.72,884.18,1228.64,875.06,1220.61,881.21Z"/><path class="cls-21" d="M1178.61,881.21c-6.11,8.06,3,17.18,11,11h0C1195.72,884.18,1186.64,875.06,1178.61,881.21Z"/><path class="cls-22" d="M1136.61,881.21c-6.11,8.06,3,17.18,11,11h0C1153.72,884.18,1144.64,875.06,1136.61,881.21Z"/><path class="cls-23" d="M1472.61,905.32c-6.11,8.06,3,17.17,11,11h0C1489.72,908.29,1480.64,899.17,1472.61,905.32Z"/><path class="cls-24" d="M1430.61,905.32c-6.11,8.06,3,17.17,11,11h0C1447.72,908.29,1438.64,899.17,1430.61,905.32Z"/><path class="cls-25" d="M1388.61,905.32c-6.11,8.06,3,17.17,11,11h0C1405.72,908.29,1396.64,899.17,1388.61,905.32Z"/><path class="cls-26" d="M1346.61,905.32c-6.11,8.06,3,17.17,11,11h0C1363.72,908.29,1354.64,899.17,1346.61,905.32Z"/><path class="cls-27" d="M1304.61,905.32c-6.11,8.06,3,17.17,11,11h0C1321.72,908.29,1312.64,899.17,1304.61,905.32Z"/><path class="cls-28" d="M1262.61,905.32c-6.11,8.06,3,17.17,11,11h0C1279.72,908.29,1270.64,899.17,1262.61,905.32Z"/><path class="cls-29" d="M1220.61,905.32c-6.11,8.06,3,17.17,11,11h0C1237.72,908.29,1228.64,899.17,1220.61,905.32Z"/><path class="cls-30" d="M1178.61,905.32c-6.11,8.06,3,17.17,11,11h0C1195.72,908.29,1186.64,899.17,1178.61,905.32Z"/><path class="cls-31" d="M1136.61,905.32c-6.11,8.06,3,17.17,11,11h0C1153.72,908.29,1144.64,899.17,1136.61,905.32Z"/><path class="cls-32" d="M420.61,336.76c-6.11,8.07,3,17.18,11,11h0C437.72,339.74,428.64,330.62,420.61,336.76Z"/><path class="cls-32" d="M378.61,336.76c-6.11,8.07,3,17.18,11,11h0C395.72,339.74,386.64,330.62,378.61,336.76Z"/><path class="cls-32" d="M336.61,336.76c-6.11,8.07,3,17.18,11,11h0C353.72,339.74,344.64,330.62,336.61,336.76Z"/><path class="cls-32" d="M294.61,336.76c-6.11,8.07,3,17.18,11,11h0C311.72,339.74,302.64,330.62,294.61,336.76Z"/><path class="cls-32" d="M252.61,336.76c-6.11,8.07,3,17.18,11,11h0C269.72,339.74,260.64,330.62,252.61,336.76Z"/><path class="cls-32" d="M210.61,336.76c-6.11,8.07,3,17.18,11,11h0C227.72,339.74,218.64,330.62,210.61,336.76Z"/><path class="cls-32" d="M168.61,336.76c-6.11,8.07,3,17.18,11,11h0C185.72,339.74,176.64,330.62,168.61,336.76Z"/><path class="cls-32" d="M126.61,336.76c-6.11,8.07,3,17.18,11,11h0C143.72,339.74,134.64,330.62,126.61,336.76Z"/><path class="cls-32" d="M84.61,336.76c-6.11,8.07,3,17.18,11,11h0C101.72,339.74,92.64,330.62,84.61,336.76Z"/><path class="cls-33" d="M420.61,360.87c-6.11,8.07,3,17.18,11,11h0C437.72,363.84,428.64,354.73,420.61,360.87Z"/><path class="cls-33" d="M378.61,360.87c-6.11,8.07,3,17.18,11,11h0C395.72,363.84,386.64,354.73,378.61,360.87Z"/><path class="cls-33" d="M336.61,360.87c-6.11,8.07,3,17.18,11,11h0C353.72,363.84,344.64,354.73,336.61,360.87Z"/><path class="cls-33" d="M294.61,360.87c-6.11,8.07,3,17.18,11,11h0C311.72,363.84,302.64,354.73,294.61,360.87Z"/><path class="cls-33" d="M252.61,360.87c-6.11,8.07,3,17.18,11,11h0C269.72,363.84,260.64,354.73,252.61,360.87Z"/><path class="cls-33" d="M210.61,360.87c-6.11,8.07,3,17.18,11,11h0C227.72,363.84,218.64,354.73,210.61,360.87Z"/><path class="cls-33" d="M168.61,360.87c-6.11,8.07,3,17.18,11,11h0C185.72,363.84,176.64,354.73,168.61,360.87Z"/><path class="cls-33" d="M126.61,360.87c-6.11,8.07,3,17.18,11,11h0C143.72,363.84,134.64,354.73,126.61,360.87Z"/><path class="cls-33" d="M84.61,360.87c-6.11,8.07,3,17.18,11,11h0C101.72,363.84,92.64,354.73,84.61,360.87Z"/><path class="cls-33" d="M1808.39,388.87h0c-8.13-6-17,3.28-10.79,11.23h0C1805.72,406.09,1814.63,396.83,1808.39,388.87Z"/><path class="cls-33" d="M1807.67,346.69h0c-8.13-6-17,3.27-10.79,11.23h0C1805,363.91,1813.91,354.64,1807.67,346.69Z"/><path class="cls-33" d="M1807,304.5h0c-8.13-6-17,3.28-10.79,11.23h0C1804.28,321.73,1813.19,312.46,1807,304.5Z"/><path class="cls-33" d="M1806.23,262.32h0c-8.13-6-17,3.28-10.79,11.23h0C1803.55,279.54,1812.47,270.28,1806.23,262.32Z"/><path class="cls-33" d="M1805.51,220.14h0c-8.13-6-17,3.27-10.8,11.23h0C1802.83,237.36,1811.75,228.09,1805.51,220.14Z"/><path class="cls-33" d="M1804.79,178h0c-8.13-6-17,3.28-10.8,11.23h0C1802.11,195.18,1811,185.91,1804.79,178Z"/><path class="cls-33" d="M1804.07,135.77h0c-8.13-6-17,3.28-10.8,11.23h0C1801.39,153,1810.31,143.73,1804.07,135.77Z"/><path class="cls-33" d="M1803.35,93.59h0c-8.13-6-17,3.27-10.79,11.23h0C1800.67,110.81,1809.59,101.54,1803.35,93.59Z"/><path class="cls-33" d="M1802.63,51.4h0c-8.13-6-17,3.28-10.79,11.23h0C1800,68.63,1808.87,59.36,1802.63,51.4Z"/><path class="cls-33" d="M1784.39,389.28h0c-8.13-6-17,3.28-10.79,11.23h0C1781.72,406.51,1790.64,397.24,1784.39,389.28Z"/><path class="cls-33" d="M1783.67,347.1h0c-8.13-6-17,3.28-10.79,11.23h0C1781,364.32,1789.92,355.06,1783.67,347.1Z"/><path class="cls-33" d="M1783,304.92h0c-8.13-6-17,3.27-10.79,11.23h0C1780.28,322.14,1789.2,312.87,1783,304.92Z"/><path class="cls-33" d="M1782.23,262.73h0c-8.13-6-17,3.28-10.79,11.23h0C1779.56,280,1788.48,270.69,1782.23,262.73Z"/><path class="cls-33" d="M1781.51,220.55h0c-8.13-6-17,3.28-10.79,11.23h0C1778.84,237.77,1787.75,228.51,1781.51,220.55Z"/><path class="cls-33" d="M1780.79,178.37h0c-8.13-6-17,3.27-10.79,11.23h0C1778.12,195.59,1787,186.32,1780.79,178.37Z"/><path class="cls-33" d="M1780.07,136.18h0c-8.13-6-17,3.28-10.79,11.23h0C1777.4,153.41,1786.31,144.14,1780.07,136.18Z"/><path class="cls-33" d="M1779.35,94h0c-8.13-6-17,3.28-10.79,11.23h0C1776.68,111.22,1785.59,102,1779.35,94Z"/><path class="cls-33" d="M1778.63,51.82h0c-8.13-6-17,3.27-10.79,11.23h0C1776,69,1784.87,59.77,1778.63,51.82Z"/><path class="cls-12" d="M0,862.39c684.42,391.71,946-343.6,1407.46-42.2,173.94,113.59,353.25,175,512.45,206.88"/></g></g></svg>