<?xml version="1.0" encoding="utf-8"?>
<!-- Generator: Adobe Illustrator 22.1.0, SVG Export Plug-In . SVG Version: 6.00 Build 0)  -->
<svg version="1.1" id="Réteg_1" xmlns="http://www.w3.org/2000/svg" xmlns:xlink="http://www.w3.org/1999/xlink" x="0px" y="0px"
	 viewBox="0 0 775.1 505.5" style="enable-background:new 0 0 775.1 505.5;" xml:space="preserve">
<style type="text/css">
	.st0{fill:#FFFFFF;stroke:#34508B;stroke-width:3;stroke-linecap:round;stroke-linejoin:round;}
	.st1{fill:#F7AB6F;}
	.st2{fill:none;stroke:#34508B;stroke-width:3;stroke-linecap:round;stroke-linejoin:round;}
	.st3{fill:#FF6AA9;stroke:#34508B;stroke-width:3;stroke-linecap:round;stroke-linejoin:round;}
	.st4{fill:#34508B;stroke:#34508B;stroke-width:3;stroke-linecap:round;stroke-linejoin:round;}
	.st5{fill:#62C3EF;stroke:#34508B;stroke-width:3;stroke-linecap:round;stroke-linejoin:round;}
	.st6{fill:#A5D996;stroke:#34508B;stroke-width:3;stroke-linecap:round;stroke-linejoin:round;}
	.st7{fill:#FBF8F3;stroke:#34508B;stroke-width:3;stroke-linecap:round;stroke-linejoin:round;}
	.st8{fill:#FBF8F3;}
	.st9{fill:#34508B;}
	.st10{fill:#F7AB6F;stroke:#34508B;stroke-width:3;stroke-linecap:round;stroke-linejoin:round;}
	.st11{fill:#3BDDBA;stroke:#34508B;stroke-width:3;stroke-linecap:round;stroke-linejoin:round;}
	.st12{fill:#DCDEE0;stroke:#34508B;stroke-width:3;stroke-linecap:round;stroke-linejoin:round;}
	.st13{fill:none;stroke:#F7AB6F;stroke-width:3;stroke-linecap:round;stroke-linejoin:round;}
	.st14{fill:none;stroke:#34508B;stroke-width:3;stroke-linecap:round;stroke-linejoin:round;stroke-dasharray:7.95,7.95;}
	.st15{fill:#FFD3A2;stroke:#34508B;stroke-width:3;stroke-linecap:round;stroke-linejoin:round;}
	.st16{fill:#FF9F9E;stroke:#34508B;stroke-width:3;stroke-linecap:round;stroke-linejoin:round;}
	.st17{fill:none;stroke:#34508B;stroke-width:3;stroke-linecap:round;stroke-linejoin:round;stroke-dasharray:8;}
	.st18{fill:#FFFAAD;stroke:#34508B;stroke-width:3;stroke-linecap:round;stroke-linejoin:round;}
	.st19{font-family:'Montserrat-Bold';}
	.st20{font-size:20.37px;}
	.st21{fill:none;stroke:#34508B;stroke-width:3;stroke-linecap:round;stroke-linejoin:round;stroke-dasharray:7.04,7.04;}
	.st22{fill:none;stroke:#34508B;stroke-width:3;stroke-linecap:round;stroke-linejoin:round;stroke-dasharray:7.93,7.93;}
	.st23{fill:none;stroke:#34508B;stroke-width:3;stroke-linecap:round;stroke-linejoin:round;stroke-dasharray:4.21,4.21;}
</style>
<title>tanulni</title>
<g>
	<g id="_Csoport_">
		<rect id="_Téglalap_" x="555.5" y="365.9" class="st0" width="147" height="88"/>
		<g id="_Csoport_2">
			<g id="_Csoport_3">
				<g id="_Csoport_4">
					<polygon id="_Görbe_" class="st1" points="654.6,393.2 658.5,389.7 657.4,384.7 662.6,384.1 664.7,379.4 669.2,381.9 
						673.7,379.4 675.9,384.1 681,384.7 680,389.7 683.8,393.2 680,396.7 681,401.8 675.9,402.4 673.7,407.1 669.2,404.5 
						664.7,407.1 662.6,402.4 657.4,401.8 658.5,396.7 					"/>
					<polygon id="_Görbe_2" class="st2" points="654.6,393.2 658.5,389.7 657.4,384.7 662.6,384.1 664.7,379.4 669.2,381.9 
						673.7,379.4 675.9,384.1 681,384.7 680,389.7 683.8,393.2 680,396.7 681,401.8 675.9,402.4 673.7,407.1 669.2,404.5 
						664.7,407.1 662.6,402.4 657.4,401.8 658.5,396.7 					"/>
				</g>
				<circle id="_Görbe_3" class="st3" cx="669.2" cy="393.2" r="6.3"/>
			</g>
			<rect id="_Téglalap_2" x="572.6" y="379.4" class="st4" width="49.2" height="5.3"/>
			<rect id="_Téglalap_3" x="572.6" y="393.2" class="st4" width="49.2" height="5.3"/>
			<line id="_Görbe_4" class="st2" x1="572.6" y1="419.4" x2="685.5" y2="419.4"/>
			<line id="_Görbe_5" class="st2" x1="638.1" y1="426.5" x2="685.5" y2="426.5"/>
			<line id="_Görbe_6" class="st2" x1="638.1" y1="433.5" x2="685.5" y2="433.5"/>
			<line id="_Görbe_7" class="st2" x1="638.1" y1="440.4" x2="685.5" y2="440.4"/>
		</g>
	</g>
	<g id="_Csoport_5">
		<g id="_Csoport_6">
			<circle id="_Görbe_8" class="st5" cx="500.9" cy="265.7" r="60.1"/>
			<path id="_Görbe_9" class="st6" d="M561,265.7c0-33.2-26.9-60.1-60-60.1c0,0,0,0,0,0c-1.1,0-2.1,0-3.2,0.1
				c-5.1,9.1-6.9,18.7-10.1,28.5c3.6-1.6,7.9,0.1,9.5,3.7c1,2.3,0.7,5.1-0.8,7.1c-2.3,3.2-6.7,3.9-10.2,5.8
				c-6.3,3.5-9.6,10.8-8.1,17.9c0.4,1.3,0.7,2.6,0.9,4c0.1,1.2-0.1,2.4,0.1,3.6c0.5,3,3.5,5,6.5,5.3s6-0.9,8.6-2.3
				c3.5-1.9,7.3-4.5,11.1-3.5c3.4,0.9,6.1,4.4,9.5,3.9c2.5-0.4,4.1-2.7,5.9-4.5c1.8-1.8,4.9-3,6.7-1.1c2.8,4,4.2,8.8,3.9,13.6
				c-0.3,1.7-0.3,3.5,0,5.3c0.4,1.7,1.9,3.3,3.6,3.2c4-0.3,3.8-8.1,7.8-8.4c2.2-0.2,3.7,2.4,3.5,4.6c-0.2,2.2-1.5,4.1-2.5,6.1
				c-1.7,3.5-0.9,5.5,1.3,8.3C555.6,296.4,561,280.1,561,265.7z"/>
		</g>
		<path id="_Görbe_10" class="st4" d="M540,220.1c21.8,25,19.2,62.9-5.8,84.7c-22.6,19.7-56.3,19.7-78.9,0
			c21.8,25,59.7,27.6,84.7,5.8c25-21.8,27.6-59.7,5.8-84.7C544,223.8,542.1,221.8,540,220.1z"/>
	</g>
	<path id="_Téglalap_4" class="st5" d="M254.5,261.5h229.2c9.5,0,17.3,7.7,17.3,17.3v156.5c0,9.5-7.7,17.3-17.3,17.3H254.5
		c-9.5,0-17.3-7.7-17.3-17.3V278.8C237.2,269.3,244.9,261.5,254.5,261.5z"/>
	<path id="_Görbe_11" class="st7" d="M237.2,427.1v6.8c0,10.4,8.4,18.7,18.7,18.8h226.3c10.4,0,18.7-8.4,18.7-18.8v-6.8H237.2z"/>
	<g id="_Csoport_8">
		<g id="_Csoport_9">
			<rect id="_Görbe_12" x="250.2" y="274.6" class="st8" width="237.7" height="139.5"/>
		</g>
		<g id="_Csoport_10">
			<rect id="_Görbe_13" x="250.2" y="274.6" class="st2" width="237.7" height="139.5"/>
		</g>
	</g>
	<circle id="_Görbe_14" class="st9" cx="369.1" cy="439.8" r="5.4"/>
	<g id="_Csoport_11">
		<rect id="_Téglalap_5" x="279.8" y="241.2" class="st10" width="89.2" height="145.4"/>
		<rect id="_Téglalap_6" x="369.1" y="241.2" class="st10" width="89.2" height="145.4"/>
	</g>
	<g id="_Csoport_12">
		<rect id="_Téglalap_7" x="289.6" y="234.5" class="st0" width="79.5" height="144.2"/>
		<rect id="_Téglalap_8" x="369.1" y="234.5" class="st0" width="79.5" height="144.2"/>
		<rect id="_Téglalap_9" x="302.6" y="248.7" class="st11" width="30.1" height="41.6"/>
		<line id="_Görbe_15" class="st2" x1="302.6" y1="306.5" x2="355.4" y2="306.5"/>
		<line id="_Görbe_16" class="st2" x1="302.6" y1="320.8" x2="355.4" y2="320.8"/>
		<line id="_Görbe_17" class="st2" x1="302.6" y1="335" x2="355.4" y2="335"/>
		<line id="_Görbe_18" class="st2" x1="302.6" y1="349.1" x2="355.4" y2="349.1"/>
	</g>
	<polygon id="_Görbe_19" class="st9" points="436.7,377 416.2,236.1 416,236.1 416,327.8 370.6,377 	"/>
	<polygon id="_Görbe_20" class="st0" points="416,327.8 369.1,378.6 369.1,234.5 416,183.6 	"/>
	<line id="_Görbe_21" class="st2" x1="269.2" y1="386.6" x2="468.9" y2="386.6"/>
	<path id="_Összetett_görbe_" class="st12" d="M325.2,237.4V228h-5c-0.7-4.2-2.4-8.2-4.9-11.7l3.7-3.7l-6.7-6.7l-3.7,3.7
		c-3.5-2.4-7.4-4.1-11.6-4.8v-5.4h-9.5v5.4c-4.1,0.7-8.1,2.3-11.5,4.7l-3.8-3.9l-6.7,6.7l3.8,3.8c-2.5,3.4-4.1,7.3-4.9,11.5H259v9.5
		h5.2c0.6,4.2,2.2,8.2,4.7,11.7l-3.6,3.6l6.8,6.7l3.5-3.5c3.5,2.5,7.5,4.3,11.8,5v4.9h9.5v-4.8c4.3-0.7,8.4-2.3,11.9-4.8l3.4,3.4
		l6.7-6.7l-3.4-3.4c2.5-3.5,4.2-7.6,4.9-11.9L325.2,237.4z M311.1,230.9h-12.9c-0.6-2-2.2-3.5-4.1-4.1v-12.9
		C303.1,214.8,310.2,221.9,311.1,230.9z M290.3,213.9v12.9c-2,0.6-3.5,2.2-4.1,4.1h-12.9C274.2,221.9,281.3,214.8,290.3,213.9
		L290.3,213.9z M273.3,234.8h12.9c0.6,2,2.2,3.5,4.1,4.1v12.9C281.3,250.8,274.2,243.7,273.3,234.8L273.3,234.8z M294.2,251.8v-12.9
		c2-0.6,3.5-2.2,4.1-4.1h12.9C310.2,243.7,303.1,250.8,294.2,251.8L294.2,251.8z"/>
	<path id="_Összetett_görbe_2" class="st12" d="M266.1,116.1v-7.9h-5.3c-0.4-1.6-1-3.1-1.8-4.5l3.7-3.7l-5.6-5.6l-3.6,3.6
		c-1.4-0.9-2.9-1.5-4.5-1.9v-5.1h-7.9v5.1c-1.6,0.4-3.1,1-4.5,1.9l-3.6-3.7l-5.6,5.6l3.7,3.7c-0.8,1.4-1.4,2.9-1.8,4.5H224v7.9h5.4
		c0.4,1.5,1,3,1.9,4.3l-3.9,3.9l5.6,5.6l3.9-3.9c1.3,0.8,2.7,1.4,4.2,1.7v5.6h7.9v-5.6c1.5-0.4,2.9-1,4.2-1.7l3.9,3.9l5.5-5.6
		l-3.9-3.9c0.8-1.3,1.5-2.8,1.9-4.3H266.1z M245.1,117c-2.8,0-5.1-2.3-5.1-5.1c0-2.8,2.3-5.1,5.1-5.1s5.1,2.3,5.1,5.1c0,0,0,0,0,0
		C250.1,114.7,247.9,117,245.1,117C245.1,117,245,117,245.1,117L245.1,117z"/>
	<path id="_Összetett_görbe_2_1_" class="st12" d="M523.4,66.1v-7.9h-5.3c-0.4-1.6-1-3.1-1.8-4.5L520,50l-5.6-5.6l-3.6,3.7
		c-1.4-0.9-2.9-1.5-4.5-1.9v-5.1h-7.9v5.1c-1.6,0.4-3.1,1-4.5,1.9l-3.6-3.6l-5.6,5.6l3.7,3.7c-0.8,1.4-1.4,2.9-1.8,4.5h-5.3v7.9h5.4
		c0.4,1.5,1,3,1.9,4.3l-3.9,3.9l5.6,5.6l3.9-3.9c1.3,0.8,2.7,1.4,4.2,1.7v5.6h7.9v-5.6c1.5-0.4,2.9-1,4.2-1.7l3.9,3.9l5.5-5.6
		l-3.9-3.9c0.8-1.3,1.5-2.8,1.9-4.3H523.4z M502.4,67c-2.8,0-5.1-2.3-5.1-5.1s2.3-5.1,5.1-5.1s5.1,2.3,5.1,5.1c0,0,0,0,0,0
		C507.5,64.7,505.2,67,502.4,67C502.4,67,502.4,67,502.4,67L502.4,67z"/>
	<path id="_Téglalap_10" class="st7" d="M326.8,482.4h84.6c4.6,0,8.3,3.7,8.3,8.3c0,0,0,0,0,0v2.4l0,0H318.5l0,0v-2.4
		C318.6,486,322.2,482.4,326.8,482.4z"/>
	<rect id="_Téglalap_11" x="345.6" y="452.6" class="st7" width="46.9" height="29.8"/>
	<rect id="_Téglalap_12" x="345.6" y="452.6" class="st4" width="46.9" height="11.4"/>
	<line id="_Görbe_22" class="st2" x1="279.8" y1="401.5" x2="311.1" y2="401.5"/>
	<line id="_Görbe_23" class="st2" x1="442.6" y1="401.5" x2="458.3" y2="401.5"/>
	<line id="_Görbe_24" class="st2" x1="355.7" y1="401.5" x2="413.7" y2="401.5"/>
	<g id="_Csoport_13">
		<line id="_Görbe_25" class="st13" x1="220.7" y1="357.1" x2="204.8" y2="357.1"/>
		<line id="_Görbe_26" class="st13" x1="218.4" y1="337.4" x2="207.1" y2="326.1"/>
		<line id="_Görbe_27" class="st13" x1="207.1" y1="388" x2="218.4" y2="376.8"/>
	</g>
	<g id="_Csoport_14">
		<line id="_Görbe_28" class="st13" x1="551.4" y1="209.1" x2="562.6" y2="197.8"/>
		<line id="_Görbe_29" class="st13" x1="567" y1="221.3" x2="582.9" y2="221.3"/>
		<line id="_Görbe_30" class="st13" x1="539.1" y1="177.6" x2="539.1" y2="193.5"/>
	</g>
	<path id="_Görbe_31" class="st2" d="M527.8,267.2c3.5,0.9,6.2,3.8,6.8,7.4"/>
	<path id="_Görbe_32" class="st2" d="M503.4,248.2c0,0,3.5-6,1.4-10"/>
	<g id="_Csoport_15">
		<path id="_Téglalap_13" class="st0" d="M524.2,477.9h26c3.9,0,7.1,3.2,7.1,7.1v8.1l0,0h-40.7l0,0v-7.5
			C516.6,481.3,520,477.9,524.2,477.9z"/>
		<rect id="_Téglalap_14" x="526.9" y="477.9" class="st5" width="19.9" height="7.6"/>
		<rect id="_Téglalap_15" x="533.8" y="474" class="st4" width="6.1" height="3.8"/>
	</g>
	<g id="_Csoport_16">
		<line class="st2" x1="269.2" y1="294.1" x2="265.2" y2="294.1"/>
		<path class="st14" d="M257.3,294.1h-83.6c-32.8,0-59.3,26.6-59.3,59.3c0,0,0,0,0,0v10"/>
		<line class="st2" x1="114.4" y1="367.4" x2="114.4" y2="371.4"/>
	</g>
	<g id="_Csoport_17">
		<line id="_Görbe_33" class="st2" x1="54.5" y1="439.5" x2="198.3" y2="439.5"/>
		<g id="_Csoport_18">
			<path id="_Görbe_34" class="st15" d="M166.6,398.6v-5.4H74c-6.6,0-11.9,5.3-11.9,11.9s5.3,11.9,11.9,11.9h92.6v-5.4H78.9v-13
				L166.6,398.6z"/>
			<rect id="_Téglalap_16" x="78.9" y="398.6" class="st2" width="80.9" height="13"/>
			<line id="_Görbe_35" class="st2" x1="159.8" y1="405.1" x2="78.9" y2="405.1"/>
			<rect id="_Téglalap_17" x="78.9" y="398.6" class="st4" width="6.8" height="13"/>
		</g>
		<polygon id="_Görbe_36" class="st0" points="166.6,433 74,433 78.9,428.3 74,423.6 166.6,423.6 		"/>
		<line id="_Görbe_37" class="st2" x1="108.4" y1="428.3" x2="133.4" y2="428.3"/>
		<path id="_Görbe_38" class="st16" d="M173.5,417.1H74v6.5h92.6v9.4H74v6.5h99.5c6.2,0,11.2-5,11.2-11.2l0,0
			C184.7,422.1,179.7,417.1,173.5,417.1z"/>
		<polygon id="_Görbe_39" class="st11" points="108.4,443.1 101.9,438.7 95.4,443.1 95.4,423.6 108.4,423.6 		"/>
	</g>
	<line id="_Görbe_40" class="st2" x1="448.5" y1="452.6" x2="448.5" y2="493"/>
	<line id="_Görbe_41" class="st2" x1="461.9" y1="452.6" x2="461.9" y2="493"/>
	<path id="_Görbe_42" class="st17" d="M469.6,331.8h115.8c15.1,0,27.4,12.3,27.4,27.4v0v12.2"/>
	<g id="_Csoport_19">
		<path id="_Görbe_43" class="st5" d="M191,240.9l-19.4,6.6c-12.8,4.4-26.7,4.4-39.5,0l-19.4-6.6l9.4-38h59.6L191,240.9z"/>
		<polygon id="_Görbe_44" class="st4" points="190.4,207.9 151.9,195.7 113.3,207.9 96.1,207.9 96.1,213.3 151.9,231 207.6,213.3 
			207.6,207.9 		"/>
		<polygon id="_Görbe_45" class="st5" points="151.9,190.3 96.1,207.9 151.9,225.5 207.6,207.9 		"/>
		<path id="_Görbe_46" class="st18" d="M114.1,235.3l18,6.1c12.8,4.4,26.7,4.4,39.5,0l18-6.1l-1.4-5.9l-16.6,5.6
			c-12.8,4.4-26.7,4.4-39.5,0l-16.5-5.6L114.1,235.3z"/>
		<polyline id="_Görbe_47" class="st2" points="151.9,207.9 178,217.3 178,255.3 		"/>
		<circle id="_Görbe_48" class="st4" cx="178" cy="252.3" r="3.7"/>
		<path id="_Görbe_49" class="st4" d="M178,252.3c-3.6,3.8-5.6,8.8-5.4,14h10.9C183.6,261.1,181.6,256.1,178,252.3z"/>
	</g>
	<g id="_Csoport_20">
		<text transform="matrix(1 0 0 1 81.76 203.3199)" class="st9 st19 st20">A</text>
		<text transform="matrix(1 0 0 1 96.9 203.3199)" class="st9 st19 st20">+</text>
	</g>
	<g id="_Csoport_21">
		<rect id="_Téglalap_18" x="609.7" y="211.5" class="st0" width="69.1" height="89"/>
		<rect id="_Téglalap_19" x="603" y="218.6" class="st3" width="68" height="85.7"/>
		<rect id="_Téglalap_20" x="632.2" y="241.2" class="st11" width="38.8" height="13"/>
	</g>
	<g id="_Csoport_22">
		<line class="st2" x1="574.9" y1="283.7" x2="578.9" y2="283.7"/>
		<line class="st21" x1="586" y1="283.7" x2="624.7" y2="283.7"/>
		<line class="st2" x1="628.2" y1="283.7" x2="632.2" y2="283.7"/>
	</g>
	<g id="_Csoport_23">
		<line class="st2" x1="136.7" y1="173.5" x2="140.7" y2="173.5"/>
		<line class="st22" x1="148.6" y1="173.5" x2="303.2" y2="173.5"/>
		<polyline class="st2" points="307.1,173.5 311.1,173.5 311.1,177.5 		"/>
		<line class="st23" x1="311.1" y1="181.7" x2="311.1" y2="188"/>
		<line class="st2" x1="311.1" y1="190.1" x2="311.1" y2="194.1"/>
	</g>
	<g id="_Csoport_24">
		<polygon id="_Görbe_50" class="st0" points="461.4,173.5 511.5,173.5 457.7,185.7 		"/>
		<polygon id="_Görbe_51" class="st0" points="461.4,185.7 465.3,189.6 511.5,173.5 		"/>
	</g>
	<g id="_Csoport_24_1_">
		<polygon id="_Görbe_50_1_" class="st0" points="27.7,140.8 66,108.6 32.7,152.5 		"/>
		<polygon id="_Görbe_51_1_" class="st0" points="35.6,150.2 41,150.6 66,108.6 		"/>
	</g>
	<g id="_Csoport_24_2_">
		<polygon id="_Görbe_50_2_" class="st0" points="349.6,52.4 397.3,37.3 349.8,65.1 		"/>
		<polygon id="_Görbe_51_2_" class="st0" points="353.3,64 358.1,66.6 397.3,37.3 		"/>
	</g>
	<g id="_Csoport_25">
		<polygon id="_Görbe_52" class="st0" points="692.9,119 642.8,119 696.6,131.2 		"/>
		<polygon id="_Görbe_53" class="st0" points="692.9,131.2 689,135.1 642.8,119 		"/>
	</g>
</g>
</svg>
