<svg id="Réteg_1" data-name="Réteg 1" xmlns="http://www.w3.org/2000/svg" viewBox="0 0 920.27 920.27"><defs><style>.cls-1{fill:#f9d35b;}.cls-2{fill:#eaa24b;}.cls-3{fill:#503d20;}.cls-4{fill:#dc5c5d;}</style></defs><title>tetszett</title><path class="cls-1" d="M795,516.1C795,715.39,637.2,877,442.49,877S89.94,715.39,89.94,516.1,247.78,155.25,442.49,155.25,795,316.81,795,516.1Z"/><path class="cls-2" d="M571.72,162.6c-144.79-56.23-314.63-10-413.18,112.16-98.93,122.58-113,300.54-32,436.89C206.35,846.12,362.44,916.13,513.2,886.57,685.76,852.73,808.8,694,811,516.1,809.06,359.66,715.31,218.38,571.72,162.6ZM554.93,840.41c-132.8,48.1-284,4.9-373.31-106.59s-100-273.33-26.91-396.4C227.38,215,371.48,149.92,508.84,178.69,665.28,211.46,776.35,353.82,778.36,516.1,776.58,660.2,688.83,791.92,554.93,840.41Z"/><path class="cls-3" d="M291.41,691.37c36.65,47.48,90.86,80.92,151.11,80.92S557,738.84,593.64,691.37c6.09-7.87,7.38-18.38,0-26.1-6.2-6.49-19.47-7.8-25.5,0-30.89,40-74.31,70.13-125.62,70.1s-94.69-30.06-125.61-70.1c-6.09-7.88-19.12-6.39-25.5,0-7.64,7.64-6,18.33,0,26.1Z"/><path class="cls-3" d="M404.31,461.46c-19.2,34.45-50.19,68.12-91.81,68.12s-72.62-33.67-91.81-68.12c-8-14.32,13.61-27.22,21.58-12.91C256.92,474.84,280.06,504,312.5,504s55.58-29.16,70.22-55.44c8-14.3,29.58-1.42,21.59,12.91Z"/><path class="cls-3" d="M664.29,461.46c-19.2,34.45-50.19,68.12-91.82,68.12s-72.61-33.67-91.8-68.12c-8-14.32,13.61-27.22,21.58-12.91C516.9,474.84,540,504,572.47,504s55.59-29.16,70.23-55.44c8-14.3,29.58-1.42,21.59,12.91Z"/><path class="cls-4" d="M583.73,286c6.22-22.91-5-47.49-26.09-57.39a46.88,46.88,0,0,0-49.5,6,48.44,48.44,0,0,0-34-37.31c-22.36-6.43-46.42,4.93-56.15,26.52a49.83,49.83,0,0,0,1.24,43.69c4,7.64,7.94,15.32,11.36,23.27l31.32,72.87,69.91-34.88c7.62-3.81,15.48-7.05,23.36-10.24A48.35,48.35,0,0,0,583.73,286Z"/><path class="cls-4" d="M419.25,66.66c-12.36-28.47-43.68-43.79-73.09-35.78C322.37,37.36,305.81,56.64,301,79.13a61.38,61.38,0,0,0-64.74-8.76c-27.85,12.56-42.93,44.55-35.2,74.69a63.45,63.45,0,0,0,36.81,43.12c10.27,4.32,20.51,8.72,30.42,13.85l91,47,42.32-94.87c4.61-10.33,9.92-20.33,15.3-30.27A65.26,65.26,0,0,0,419.25,66.66Z"/></svg>